<?xml version="1.0" encoding="utf-8"?>
<!-- Generator: Adobe Illustrator 21.1.0, SVG Export Plug-In . SVG Version: 6.00 Build 0)  -->
<svg version="1.1"
	 id="Layer_1" inkscape:version="0.92.2 5c3e80d, 2017-08-06" sodipodi:docname="ttlogo.svg" xmlns:cc="http://creativecommons.org/ns#" xmlns:dc="http://purl.org/dc/elements/1.1/" xmlns:inkscape="http://www.inkscape.org/namespaces/inkscape" xmlns:rdf="http://www.w3.org/1999/02/22-rdf-syntax-ns#" xmlns:sodipodi="http://sodipodi.sourceforge.net/DTD/sodipodi-0.dtd" xmlns:svg="http://www.w3.org/2000/svg"
	 xmlns="http://www.w3.org/2000/svg" xmlns:xlink="http://www.w3.org/1999/xlink" x="0px" y="0px" viewBox="0 0 413.4 390.9"
	 style="enable-background:new 0 0 413.4 390.9;" xml:space="preserve">
<style type="text/css">
	.st0{fill:#C0D62D;}
	.st1{fill:#858AC2;}
	.st2{fill:#010101;}
	.st3{fill:#040201;}
	.st4{fill:#010407;}
	.st5{fill:#010103;}
	.st6{fill:#0E0102;}
	.st7{fill:#8789C4;}
	.st8{fill:#120006;}
	.st9{fill:#010911;}
	.st10{fill:#050502;}
	.st11{fill:#190305;}
	.st12{fill:#050306;}
	.st13{fill:#03040A;}
	.st14{fill:#280203;}
	.st15{fill:#010004;}
	.st16{fill:#2B0203;}
	.st17{fill:#260102;}
	.st18{fill:#0A0104;}
	.st19{fill:#848BC1;}
	.st20{fill:#050805;}
	.st21{fill:#090003;}
	.st22{fill:#BDD12E;}
	.st23{fill:#010102;}
	.st24{fill:#050305;}
	.st25{fill:#020204;}
	.st26{fill:#BDCB4E;}
	.st27{fill:#C1D532;}
	.st28{fill:#C0D631;}
	.st29{fill:#BED132;}
	.st30{fill:#C0D34F;}
	.st31{fill:#BECE4C;}
	.st32{fill:#BECE51;}
	.st33{fill:#C8D757;}
	.st34{fill:#C0D533;}
	.st35{fill:#C8DA4E;}
	.st36{fill:#C0D15C;}
	.st37{fill:#C3D843;}
	.st38{fill:#BFD05D;}
	.st39{fill:#BDCD4C;}
	.st40{fill:#CBDB55;}
	.st41{fill:#C1CB5B;}
	.st42{fill:#C9DE4F;}
	.st43{fill:#BDD05A;}
	.st44{fill:#C2D726;}
	.st45{fill:#ADBD44;}
	.st46{fill:#C1D534;}
	.st47{fill:#BFD062;}
	.st48{fill:#B9CB58;}
	.st49{fill:#CCD94D;}
	.st50{fill:#C5D953;}
	.st51{fill:#C8DB4C;}
	.st52{fill:#C6DB52;}
	.st53{fill:#B8C85A;}
	.st54{fill:#C9DE42;}
	.st55{fill:#878AC3;}
	.st56{fill:#858BBE;}
	.st57{fill:#8688C3;}
	.st58{fill:#515285;}
	.st59{fill:#8989CA;}
	.st60{fill:#9294C0;}
	.st61{fill:#9195C5;}
	.st62{fill:#9592C4;}
	.st63{fill:#090C24;}
	.st64{fill:#080202;}
	.st65{fill:#06132A;}
	.st66{fill:#8788BE;}
	.st67{fill:#090007;}
	.st68{fill:#020008;}
	.st69{fill:#02030A;}
	.st70{fill:#01000C;}
	.st71{fill:#FBB612;}
	.st72{fill:#E2BB49;}
	.st73{fill:#E8BA43;}
	.st74{fill:#F6BF3A;}
	.st75{fill:#F5BB25;}
	.st76{fill:#EDB839;}
	.st77{fill:#ECB93B;}
	.st78{fill:#E8BA44;}
	.st79{fill:#8787BA;}
	.st80{fill:#ECC146;}
	.st81{fill:#8387BE;}
	.st82{fill:#BCD434;}
	.st83{fill:#BED050;}
	.st84{fill:#C0CB59;}
	.st85{fill:#BDCA61;}
	.st86{fill:#CADC50;}
	.st87{fill:#CAD85F;}
	.st88{fill:#C6D451;}
	.st89{fill:#C8DC5B;}
	.st90{fill:#C6D756;}
	.st91{fill:#01ADEB;}
	.st92{fill:#050104;}
	.st93{fill:#001B32;}
	.st94{fill:#B5C45D;}
	.st95{fill:#E6212A;}
	.st96{fill:#DD2C39;}
	.st97{fill:#EC1B24;}
	.st98{fill:#E51D24;}
	.st99{fill:#E81E22;}
	.st100{fill:#080102;}
	.st101{fill:#E4211E;}
	.st102{fill:#BD2431;}
	.st103{fill:#C52530;}
	.st104{fill:#060102;}
	.st105{fill:#BA242F;}
	.st106{fill:#04ACEA;}
	.st107{fill:#20AEE7;}
	.st108{fill:#00ACEE;}
	.st109{fill:#17B0EC;}
	.st110{fill:#002E53;}
	.st111{fill:#EA1B28;}
	.st112{fill:#E72A35;}
	.st113{fill:#020205;}
	.st114{fill:#888CCA;}
	.st115{fill:#F5B31A;}
	.st116{fill:#FCB617;}
	.st117{fill:#F2B515;}
	.st118{fill:#EDBC43;}
	.st119{fill:#E9B130;}
	.st120{fill:#F7B419;}
	.st121{fill:#EEB21D;}
	.st122{fill:#E5BC45;}
	.st123{fill:#E7B746;}
	.st124{fill:#EABB49;}
	.st125{fill:#EFBD49;}
	.st126{fill:#EABD44;}
	.st127{fill:#F3C036;}
	.st128{fill:#F5B638;}
	.st129{fill:#F6BB13;}
	.st130{fill:#DEB74D;}
	.st131{fill:#FBC943;}
	.st132{fill:#E8BB52;}
	.st133{fill:#C3D628;}
	.st134{fill:#01ACEF;}
	.st135{fill:#E71825;}
	.st136{fill:#E81C1F;}
	.st137{fill:#EA1C25;}
	.st138{fill:#EA1D20;}
	.st139{fill:#EE1927;}
	.st140{fill:#E91C27;}
	.st141{fill:#F01828;}
	.st142{fill:#EB1D20;}
	.st143{fill:#F0192C;}
	.st144{fill:#F8B70B;}
	.st145{fill:#FAB60E;}
	.st146{fill:#FAB80A;}
	.st147{fill:#FBBF28;}
	.st148{fill:#00AEEA;}
	.st149{fill:#EF1E29;}
</style>
<sodipodi:namedview  bordercolor="#666666" borderopacity="1" gridtolerance="10" guidetolerance="10" id="namedview663" inkscape:current-layer="Layer_1" inkscape:cx="239.83382" inkscape:cy="145.76678" inkscape:pageopacity="0" inkscape:pageshadow="2" inkscape:window-height="690" inkscape:window-maximized="0" inkscape:window-width="1144" inkscape:window-x="0" inkscape:window-y="0" inkscape:zoom="0.60370406" objecttolerance="10" pagecolor="#ffffff" showgrid="false">
	</sodipodi:namedview>
<title  id="title6">ttlogo</title>
<path id="path10" d="M373.6,283.3c7.7,8.9,10.1,19.4,9.6,31c-0.4,8.1,0.7,16.3-1.1,24.3c-3.7,16.9-15,25.8-31.4,28.9
	c-12.7,2.6-25.8,1.8-38-2.4c-1.1-0.5-2.4-0.4-3.4,0.4c-2.9,2-6.4,2.9-9.9,2.8c-7.2,0-14.5,0.5-21.7-0.2c-5.7-0.3-11.4-0.3-17.2,0
	c-17.9,0.5-35.7,0.5-53.6,0c-5.6-0.1-11.2-0.1-16.8,0c-39.6,0.3-79.2,0.1-118.9,0.2c-9.5,0-16.1-6.5-16-16.1
	c0.4-31.2,0.1-62.5,0.2-93.7c0-3.1-0.8-4.1-3.9-3.9c-3.6,0.2-7.2,0.2-10.9,0c-9-0.3-14.5-6-14.5-15c0-10,0-20,0-30
	c-0.2-7,5-13.1,12-13.9c7.2-1,14.5-0.4,21.7-0.4c2.4,0,3.1-0.5,3.1-3C63,158.3,63,124.2,63.1,90c0-2.5-0.7-3.1-3.1-3
	c-6.9,0.2-13.8,0.1-20.6,0c-8.6-0.1-14.7-5.7-14.8-14.4c-0.2-12.5-0.2-25,0-37.5c0.1-8.1,6-13.7,14.1-14c1.9-0.1,3.8,0,5.6,0
	c84.2,0,168.5,0,252.7,0c3.1,0,6.2,0.1,9.1,1.5c0.5,0.3,1.1,0.4,1.7,0.3c6.7-3.2,13.8-1.5,20.7-1.7s13.8-0.1,20.6,0
	c8.8,0.1,14.6,6.1,14.6,15c0,52.9,0,105.7,0,158.6c0,1.6-0.7,3.3,1.5,4.5c12.3,6.4,17.1,17.5,17.6,30.5c0.6,13.4,0.3,26.7,0.2,40.1
	C383.1,275.5,381.2,278,373.6,283.3z"/>
<path id="path26" class="st0" d="M343.6,180.1c0.8,8.4,0.2,16.8-0.1,25.2c-0.8,1.2-2,1.1-3.1,0.7c-0.8-0.6-1.8-0.8-2.8-0.8
	c-8.1,0.5-16.2-0.5-24.3-0.6c-8.4-0.1-16.7-0.1-25.1-0.2c-5.6-0.1-11.1,0-16.7,0.5c-1.7-0.5-3.4-0.6-5.2-0.5c-10.1,0-20.2,0-30.3,0
	c-1.6-0.1-3.2,0-4.8,0.4c-2.6,0.3-5.1,0.4-7.7,0.2c-7.2-1-14.6-1.1-21.8-0.2c-0.5,0.1,0.1,0-0.4,0.1c-7.7,0.6-8.1,0.2-8.1-7.4
	c0.1-1.9,0-3.7-0.3-5.6c-0.2-0.9-0.2-1.7-0.1-2.6c0.4-1.6,0.6-3.3,0.7-4.9c1.2-5.4,0.6-10.9,0.1-16.3c-0.2-0.8-0.2-1.7,0-2.5
	c0.4-6.6,0.8-13.2,0.7-19.8c-0.2-1.1-0.2-2.2,0-3.2c1.2-3.5-0.3-6.9-0.3-10.3c-1.6-17.8-0.4-35.7-0.8-53.5c0.1-1.4-0.1-2.7-0.4-4.1
	c-0.3-5.4,0.9-10.8,0-16.2c0.9-5.1,0.2-10.2,0.4-15.3c0.1-4.8,0.6-5.3,5.3-5.8c1.9-0.2,3.7-0.2,5.6-0.1c5.6,0.2,11.1,0,16.5-1.9
	c4-1.8,7.7-0.5,11.5,0.8c0.3,0.2,0.6,0.5,0.7,0.8c2.8,1,5.7,0.2,8.6,0.1s5.9-0.8,8.8,0.3c1.5,0.9,2.4,2.5,4.9,1.2
	c1.7-0.9,2.9,1.2,3.2,3.1c0.5,4.3,1.7,8.5-0.2,12.8c-0.6,1.4-0.1,2.4,1.3,3c1.3,0.9,1.2,2.3,1.1,3.7c0,0.4-0.1,0.8-0.2,1.2
	c-1,5,0.1,10.2-0.7,15.2c-0.3,0.6-0.8,1-1.4,1.3c-4.3,0.8-8.8-0.1-13.1,0.6c-4-0.7-8.1-1.1-12.2-1.6c-6.9-0.4-6.6-1.3-6.6,6.2
	c0,0.6,0,1.2,0,1.8c0,1.6,0,3.2,0,4.8c0,0.8-0.1,1.6-0.2,2.3c0.1,3.4-0.2,6.9,0.6,10.3c2.4,1.5,5,0.6,7.5,0.8c1.3,0,2.7,0.1,4,0.3
	c6.4,0.4,12.9,1.1,19.3,1.2c0.9,0,1.8-0.3,2.5,0.4c0.8,1.2,0.7,2.5,0.8,3.8c0,3.6,0.3,7.3-0.8,10.8c-0.1,0.6-0.3,1.1-0.7,1.6
	c-0.7,0.2-1.1,0.9-1,1.7c0.4,3.6-0.1,7.2,0.6,10.8c0.5,2.7,0.5,5.5-1.2,7.9c-0.3,0.3-0.7,0.4-1.1,0.5c-10.5,0-20.9,0-31.4-0.1
	c-1.1,0.1-2.1,0.7-2.8,1.6c-0.6,0.8-1.6,1.7,0.3,2.1s1.9,1.8,1.9,3.2c0.2,2.7,0.1,5.5-0.4,8.2c-0.6,2.1-0.3,4.3,0.9,6.1
	c1.9,2.1,4,0.5,6,0.2c1.4-0.2,2.8-0.3,4.1-0.1c0.4,0.1,0.9,0.1,1.3,0.3c11.3,0.4,22.7,0.5,34-0.1c0.7-0.2,1.3-0.3,2-0.3
	c7.7,1.1,15.4,0.3,23-0.7c0.7-0.1,1.5-0.1,2.2,0.1c1.8,0.5,3.6,0.6,5.4,0.5c2.4,0.5,4.8,0,7.1,0c4.9,1,9.8,0.8,14.8,0.5
	c0.4-0.1,0.8-0.2,1.2-0.2c0.4,0,0.8,0,1.2,0.1c2,0.6,4.2,0.1,6.3,0.7c4.4,1.6,4,6.1,5.5,9.6c0.5-3.4-4.1-7.4,1.7-9.7
	c1.2,0.1,2.4,0.6,3.2,1.6c1.8,3.3,0.4,6.5-0.3,9.8v-0.1C342.8,177.6,343.1,178.8,343.6,180.1z"/>
<path id="path28" class="st1" d="M345.8,83.3c0.2,6.7,0.1,13.5-0.5,20.2c-0.2,2.1-0.3,4.2,0.9,6.1c1.1,1.8,0.5,3.9,0.2,5.9
	c-0.7,5.8-1.2,11.6,0,17.5c0.7,3.6-0.4,7.2-0.7,10.8c-0.5,5.8-0.1,11.6-1,17.3c-0.1,0.6,0,1.2-0.5,1.7l0.1-0.1
	c-1.8,1.6-4.1,1.1-6.2,1.1c-0.8,0-1.6-0.1-2.4-0.3c-1.4-0.5-3-0.5-4.4,0c-1,0.2-1.9,0.3-2.9,0.3h-4.3c-0.6,0-1.3,0-1.9-0.1
	c-3.7-1.4-7.8,0.2-11.5-1.3c-2.4-4.1-2.9-8.8-3.2-13.3c-0.4-4.4-1.4-8.6-3-12.7c-0.7-1.7-1.5-3.5-1-5.4c1.1-1.2,0.7-2.6,0.6-3.9
	c-0.2-0.5-0.8,0.1-0.4-0.1c0.2-0.1,0.3,0,0.3,0.2c0.3,1.1,0.3,2.4-0.3,3.4c-1.6-0.1-1.6-1.4-1.6-2.4c0.2-4.2-1.3-7.9-2.7-11.7
	c-0.2-0.7-0.3-1.4-0.6-2c-0.1,3.2-0.4,6.3,0.4,9.5c0.7,1.7,1.1,3.6,1.2,5.4c0.1,9.7,0.1,19.3,0,29c0,2.8-0.9,4.9-4.1,5.2
	c-4.5,0.4-9,0.3-13.4-0.2c-4.4-0.6-8.8,0.8-13.4-0.1c-4.2-0.9-5.4-1.3-5-5.7c1-10.2,0.5-20.4,0.6-30.6s0-20.2,0-30.3
	c0-2.2-0.1-4.5-0.4-6.7c0-0.4,0.1-0.8,0.3-1.1c1.4-0.5,3-0.9,2.2-3c0-0.1-0.2-0.1-0.3-0.1c-0.1,0-0.2,0.1-0.3,0.2
	c-0.6,0.7-0.3,2.2-1.8,2c-1.2-1.2-1-2.6-0.5-4.1C264.8,83,265,82,265,81c-1-6.4-0.6-12.9-0.4-19.4c0.1-4.3,1.8-8.5,1.6-12.9
	c0.9-1.2-0.1-4.3,3.1-3.4c1.4,1.2,1.5,3,1.8,4.9c0.5-3.5,2.6-4.9,5.8-4.9c8.3,0.4,16.6,0.1,24.9,0.3c2.3,2.1,2.8,5.1,3.6,7.9
	c2.3,7.3,4,14.7,5.7,22.2c0.7,3,1.8,5.9,2,8.2c-0.5-1.1-0.3-2.9-0.1-4.8c0.5-5.5,0.3-11-0.5-16.4c-0.7-5.5-2.2-11-1.8-16.6
	c0.7-2.4,0.2-4.9,0.4-7.4c4.2-2,8.5-3.5,13.2-1.7c0.5,1-0.4,1.9,0,2.9s2,1.7,1.1,2.9s-2.5,0.5-3.9,0.4c-1.9-0.1-3.9-0.5-6.1,0.1
	c1.8,1.2,3.4,0.8,5,0.8c2.9,0,5.7-0.1,8,2.2c1.1,1.2,2.5,0.8,3.7-0.2c1.4-1.2,2.7-2.2,4.6-0.8c1.2,0.9,2.3-0.4,3.5-0.7
	c1.8-0.3,3.7-0.6,4.2,1.7c1,4.1,0,8.2-0.6,12.2c-2-0.3-1.6-2.3-3.3-2.6c-0.8,2.5-0.3,5.5-2.4,7.6c-0.2,0.2-0.2,0.5-0.1,0.7
	c2.2,2.2,1,4.9,1.3,7.4c0.3,2.7,0,5.4,0.5,7.5c-0.2-4.9,0.8-10.5,0.5-16.1c0-0.6,0-1.3,0.2-1.9c0.3-1,0.7-2,1.9-2s1.5,1.2,1.7,2.2
	c0.1,0.9,0.1,1.7,0.1,2.6C344.4,70.6,344.9,77,345.8,83.3z"/>
<path id="path30" class="st2" d="M193.8,58.5c1,5.3,0,10.5,0,15.8c0.4,16,0.1,31.9,0.1,47.9c0,3.3,0.3,6.7,0.8,10
	c-0.3,3.4,1.4,6.7,0.6,10.2v3.1c0.8,3.6-1.1,7.1-0.6,10.7c-0.5,2.6-0.5,5.2-0.2,7.8c0.2,0.6,0.2,1.2,0,1.7c0,0.8,0,1.5,0,2.3
	c-0.4,5.2,0.1,10.4-0.4,15.6c-0.3,1.8-0.5,3.5-0.5,5.3l0.1,2.3c0.2,0.4,0.2,0.8,0,1.1c-0.1,1.8-0.2,3.5-0.1,5.3
	c0.1,7.8-0.8,6.6,6.7,6.7c0.7,0.1,1.5,0,2.2-0.2c0.8-0.1,1.7-0.2,2.5-0.1c4.2,0,8.5,0,12.7,0c0.4,0,0.8,0,1.1,0.1
	c1.9,1.2,3.9,1.1,6,1.2c1.4,0.1,3-0.2,4.1,1.1c0.4,2.1,2.4,0.8,3.4,1.7c0.3,0.2,0.5,0.5,0.5,0.9c0,0.4-0.2,0.7-0.3,1
	c-0.3,0.4-0.9,0.9-0.8,1.2c1.9,5.7,0.4,11.5,0.6,17.2c-0.4,2.1-0.2,4.3,0.4,6.4c0.4,13.7,0.1,27.3,0.1,41c0,3.6,0.1,7.2,0.1,10.8
	c0.1,0.4,0.2,0.8,0.3,1.2c0.2,1.4,0.4,2.7,0.7,4.1c0.2,0.9,0.2,1.9,0,2.9c-0.6,1.6-0.4,3.3-0.7,4.9c-0.4,1.4,0.2,3-0.5,4.4
	c0,6.1-0.4,12.1,0.6,18.2c0.3,2.4,0.3,4.9,0.1,7.4c-0.1,1.6-0.4,3.2-2.4,3.6c-1.5-1.2-1.5-3-1.9-4.7c-2.7-10.7-2-21.9-3.7-32.7
	c-0.1-0.9-0.2-1.7-0.3-2.6c-0.4-2-0.1-4-0.6-5.9c-0.1-0.4-0.2-0.7-0.3-1.1c-0.3-1.9,0-3.9-0.7-5.7c-0.1-0.4-0.2-0.8-0.2-1.2
	c-0.2-4.1-0.7-8.3-1.4-12.4c-0.7-7.5-2.1-15-2.3-22.5c0.2-0.8,0.6-1.6,1.3-1.7c4.7-0.9,4.1-4.4,4.1-7.8c0.1-6.3-0.2-12.6-0.5-19
	c0-0.7,0.1-1.5,0.3-2.2c0.2-0.8,0.8-1.4,1-2.2c-1.1-0.3-2.2-0.3-3.3,0.1c-6.7,0.5-13.4,0.8-20.1-0.3c-2.7-0.4-5.4-0.8-8.1,0.3
	c-1.6,0.6-3.4,0.4-5.2,0.4c-10-0.3-20,0.2-30,1.4c-2.2,0.3-4.2-0.4-6.3-0.7c-7.6-0.9-15.1-0.1-22.7,0.5c-2.4,0.2-4.2-0.5-5.1-2.8
	c-0.1-1.6,1.3-1.9,2.3-1.8c6.9,0.7,13.5-1.7,20.4-1.7c4.5-0.1,9,0.4,13.4,1.4c1.3,0.3,2.7,0.2,4-0.2c7.1-1.6,14.4-1.8,21.5-0.4
	c2.4,0.5,2.7-1.6,2.6-3.1c-0.9-8.6-0.2-17.2-0.7-25.7c-0.2-2.8-1.5-4.6-4.8-4.4c-4.3,0.2-8.6-0.2-12.9,1.1c-5,1.6-9.8-0.6-14.6-1.8
	c-1.4-0.4-2.4-1.6-2.5-3c-0.3-3,0.3-5.9,0.5-8.9c0.1-1.7,2-2,3.6-2.1c8.8-0.7,17.7-1,26.5-0.7c4.9,0.1,4.9,0.2,4.5-4.5
	c-0.1-0.7,0-1.5,0.2-2.2c0.3-2.1,3.3-3.1,2.4-5.9c0-0.2-0.6,0.3-0.1,0.2c0.2,0,0.2,0.1,0.2,0.3c0.1,0.5,0.1,1-0.1,1.4
	c-0.7,1.2-1.4,0.4-2-0.1c-0.7-3.1-3.1-6-1.2-9.4c0.4-0.4,1.2-0.5,1.4-1c0.1-0.2-0.8,0.1-1-0.4c-0.9-1.5-0.5-3.1-0.4-4.7
	c0.1-2.3-0.9-3.6-3.3-3c-2.2,0.5-3.9,0.1-5.2-1.8c-0.2-0.5-0.2-1.1,0.1-1.5c0.8-4.9,0.5-5.2-4-4.6c0.8,2,4.3,1.6,4.1,4.6
	c-0.8,1.2-1.3,2.5-2.9,2.9c-6.4,0.3-12.9,0.4-19.3,0.1c-2.1-0.1-4.9-0.5-4.9-3.5c0-2.3-1.6-5.3,2-6.7c2.7,1.3,5.7,1.9,8.6,1.7
	c1.5,0,3.9-0.4,3.8,1.8s-2.3,1.2-3.7,1.4c-1.1,0.1-2.1,0-3.2,0c0.6,0.1,1.2,0.1,1.9,0c1.8-0.4,4.4,1.2,5.2-1.5
	c1.3-4.5,0-7.4-3.7-8.8c-2.5-0.9-3.1-2.6-2.6-5c2.7-1.4,5.4-0.8,8,0c2.4,0.8,4.9,0.9,7.3,0.2c2.6-0.8,5.4-1.1,8.1-0.9
	c1.8,0.2,2.4-0.5,2.5-2.3c0.3-5.2,0.2-10.4,0.9-15.6c0.4-3-0.2-6.6-0.2-9.9c0-0.8-0.3-1.8-1-1.9c-2.8-0.2-5.1-2.8-8.3-1.7
	c-1.5,0.6-3.3,0.4-4.7-0.5c-1-2.3,1.2-2.6,2.2-3.6c1.7-1,4,0.1,5.6-1.4c1.8-2.9,0.7-6.1,0.9-9.1c0.1-1.9,0-3.7,0-5.6
	c0-2.6,0-5.2,0-7.8s0-5.2,0-7.9c0-5.3,0-5.3-5.3-5.9c-1.3-0.4-2.7-0.6-4.1-0.5c-1,0-2-0.1-2.8-0.6c-0.3-0.2-0.5-0.5-0.5-0.9
	c0.3-1.1,1.9-1.1,2.3-2.5c-1.9,0.3-2,2.5-3.5,3c-2.2,0.6-4.5,0.2-6.7,0.3c-2.1,0.1-4.2,0-6.3-0.2c-2.3-0.8-4.8-0.7-7.1-1.7
	c-2-0.9-3.6,1.1-5.4,1.7c-7.6,0.5-15.1,0.2-22.7,0.2c-1,0.1-2-0.3-2.7-1c2.4-2,5.3-2.4,8.4-2.3c4.2,0.1,8.5,0,12.8,0
	c2.6,0,5,0,7.2-2.2c1.9-2,7.4-0.8,9.3,1.1c2.3,2.3,5.5,0.5,8.1,1.3c0.5,0.2,1.2-0.1,1.8-0.2c0.9-0.1,2.3,0.1,2.1-1.4
	c-0.3-1-1.2-1.7-2.3-1.6c-2.1,0-4.2,0-6.4-0.1c-1,0-2.6,0.5-2.5-1.3c0-1.5,1.3-1.8,2.5-1.6c3.7,0.3,7.6-1.2,10.9,2
	c1.5,1.4,4,1,6.2,1c1.8,0,3.7-0.5,5.6,1.6c-1.4-4.9-1.4-4.9,4.9-4.4c2.1,0,4.1,0.7,5.7,2c-1.4,1.2-3.2,1.1-4.8,1.8s-3.2,1.2-4.4,2.5
	c1.3,2.1,4.8,2.3,4.7,5.5c-0.8,5.9-0.3,11.9-0.8,17.9c0.1,1,0,2-0.2,3c-0.5,1.6-1.1,3.3,1,4.2s3.6,0.4,4.9-1.9
	c-1.8,1.8-3.7,1.9-5.4,0.8s-0.4-2.7,0-4c2-5.8,1-11.8,0.7-17.7c-0.1-0.6-0.2-1.2-0.3-1.8c1.8-3,4.1,0.2,6.1-0.5
	c2.2,1.5,4.3,0.1,6.5,0c4.1-0.1,8.2-0.1,12.4,0c2.1,0,3.8-0.3,3.7-3c0-1,0.5-2,1.4-2.5c1.4-0.8,4.1-0.3,3-3.5
	c-0.2-0.7,1.6-0.8,2.6-0.7s2.1,0.7,1.7,1.5c-1.3,2.6,0.1,2.3,1.8,2c0.8-0.1,1.3,0.8,1.3,1.1c-0.2,3.9,3.6,3.4,5.5,5.1
	c0.1,0.7-0.1,1-0.9,0.8c-3.7-0.6-7.3-2.4-11.2-0.7c-2.1,0-4.1,0.4-6.1,1.2c-3.6,1.5-7.6,0.1-11.4,0.5c-2,0.2-4,0.2-6,0
	c-2.9-0.3-4,0.8-3.9,3.8C194,47.3,194.1,52.9,193.8,58.5z"/>
<path id="path32" class="st3" d="M225.8,213.1c-0.1,5.1,0,10.3,0.5,15.4c0.3,2.6-0.6,5.4,0,7.9c1.2,5.2-2.4,6.1-5.7,7.6
	c-4.1,1.6-8.5,1.4-12.8,1.1c-7.2-0.5-14.4-1.1-21.6-0.9c-5.4,0.1-5.6,0.2-6.7,5.7c-0.4,1.4-0.7,2.8-0.7,4.2c0,0.4-0.1,0.8-0.2,1.2
	c-0.6,1.9-0.3,3.8-0.5,5.8c0,0.6-0.1,1.2-0.3,1.8c-0.6,1.8-0.3,3.7-0.6,5.5c-1.3,13-2.7,26-4.2,39c-0.2,2.1-0.6,4.2-1,6.3
	c-0.4,1.2-0.6,2.4-0.8,3.6c-0.1,0.4-0.1,0.8-0.2,1.2c-0.6,1.5-0.3,3.2-0.5,4.8c-1.2,7.5-1.2,15-2.7,22.5c-0.3,1.3-0.3,2.7-1,3.9
	c-2.7,4.1-7.2,2.6-11,3.6c-3.6-0.3-7.1-0.1-10.6-0.2c-1.4,0-1.3,1.1-1.5,2.1c-0.4,1.8-1.5,2.5-3.3,1.4c-0.4-1-1.6-1.7-1.5-3
	c-0.9-1.4-1.4-3.1-1.4-4.8c0.5-4,0.2-7.9,0.4-11.9c0.1-1.3,0-2.7-0.3-4c-0.2-0.7-0.3-1.4-0.3-2.1c0.2-1.6-0.9-2.4-2.1-3.2
	c-0.6-0.7-0.8-1.7-0.3-2.6c2.2-2.2,2.7-8,0.7-11.6c-0.8-1.5-1.1-2.7,0-4c1.7-1.9,1.9-3.8,0.2-5.8c-0.8-0.9-1.3-1.9-1.6-3.1
	c-0.1-2.3-0.6-4.6,0.6-6.8c2.2,0.9,2.2,0.9,2,4.2c0.4-4,0.2-8,0.2-12c-0.1-3.1,0.2-6.2-0.3-9.3c1-8.8-0.3-17.6-0.6-26.4
	c-0.1-1.9-0.3-3-2.4-3.3c-0.9,0-1.6-0.8-1.6-1.6c0,0,0-0.1,0-0.1c0.2-1.1,1.3-0.9,2.3-1c-3-0.7-6.1-0.4-9,0.8
	c-5.4,0.8-10.8,1.2-16.3,1c-1.5-0.1-3,0.1-4.4-0.6c-1-2.6,1.2-2.1,2.3-2.2c3.6-0.2,7.2-0.3,10.8-0.5c2.3-0.1,3.3-0.7,3.7-3.4
	c0.5-3.5,0.4-7.1-0.4-10.6c1.9-4.5,0.4-8.9-0.6-13.3c-0.2-0.5-0.3-1-0.3-1.6c0.7-2.2,3.3-1.9,4.6-3.4l0.5-0.1c1.9,1.9,4,1.9,6.7,1.7
	c8.4-0.6,16.7-1.1,25.2,0.2c3.8,0.7,7.8,0.4,11.5-0.9c1.8-0.6,3.9-0.3,5.9-0.3c5.5,0,11-0.3,16.5,0.1c3,0.2,5.4-1.9,8.7-1.1
	c6.3,1.6,12.9,0.9,19.4,0.9c1.5,0.2,3-0.1,4.4-0.8C224.4,211,225.6,211.7,225.8,213.1z"/>
<path id="path34" class="st2" d="M135.1,300.8l1.5,2.2c0,0.2,0,0.3,0,0.5c0.2,1.7-0.2,3.3,0,5v0.5c-0.4,1.1-1.3,1.5-0.1,3.5
	c1.8,3,1.7,7.2,1.4,11c-0.1,1.3-1.6,1.3-2.7,1.3c-1,0-2.3-0.2-2.3,1.2c0,2.6-1,5.4,0.3,7.7c1.3,2.5,1.8,5.4,1.4,8.3
	c-0.3,3.2,0.6,5.5,3.6,6.9c0.9,1.4,0.8,3,0.8,4.5c-2.8-1.5-4.6,0.9-6.8,1.8c-1.1,0.4,0,1.5,0.2,2.3s1,1.7,0,2.3
	c-0.7,0.3-1.4,0.4-2.1,0.2c-1.1-0.2-1-1.3-1-2.1s0-1.5-0.1-2.2s-0.7-1.5-1-1.2c-1.5,1.8-5.9,0.1-5.3,4.3c0.2,1.8-0.8,1.6-1.8,1.1
	c-2.6-1.6-5.8-1.6-8.4,0c-0.9,0.5-1.9,0.6-2.9,0.2c-0.3-0.2-0.4-0.5-0.4-0.9c0.4-1.2,1.5-1.1,2.5-1.2c3-0.1,4.7-2.5,7.8-3.8
	c-4-1.5-7.2,0.3-10.4,0.3c-1.3,0-1,1.5-1,2.5c-0.2,2.6-1.9,3.1-4.2,3.1s-4.1-1.3-6.5-0.1c-1.3,0.7-1.3-0.9-1-1.9
	c0.4-1.3,0.4-2.5-1.3-2c-4.2,1-8.4,0.4-12.6,0.1c-1.4-0.1-2.4,0.1-1.6,1.7c0.4,0.8,1.3,1.5,0.2,2.1c-1,0.7-2.3,0.5-3-0.5
	c0,0,0,0,0,0c-0.5-0.7-1.3-1.2-1.1-2.3c0.1-0.7,0-1.3-0.8-1.3s-1,0.6-1.1,1.3c-0.1,0.6-0.3,1.2-0.5,1.8c-0.3,0.7-0.7,1.4-1.7,1.1
	c-0.7-0.2-1-0.9-0.8-1.6c0-0.1,0.1-0.2,0.1-0.3c1.7-2.1,0.1-4.1-0.2-6.1c6.4,0.2,12.8-1.3,19.2,0.3c1.3,0.3,2.7,0.3,4.1,0.1
	c2.1-0.2,3.6-1.3,3.4-3.6c-0.3-5.8-0.2-11.7-0.5-17.5c-0.5-9.7-1-19.4,0.3-29.1c0.4-2.9-0.4-5.7-0.9-8.5c-0.5-3.1-0.6-6.2-0.3-9.3
	c0.6-1.7,0.7-3.5,0.1-5.2c-0.2-1-0.2-2,0-3c0.7-2.4,0.3-4.9,0.4-7.4c0-1.5,0-3,0.3-4.4c0.9-2.8,0.3-5.7,0.5-8.6
	c0.3-2.8-1.8-5.4-0.7-8.2c1-2.2-0.9-4.9,1.2-6.9c4-1,8.2-0.4,12.3-0.6c2.5-0.2,5,0.5,7.4-0.6c2-3.1,0.3-6.7,1.1-10
	c0.1-0.4,0.3-0.7,0.5-1.1l0.5-0.3l0.6,0.2c3,4.5,0.5,9.4,0.9,14c0.1,1.4-1.2,0.9-1.9,1c-4.1,0.8-8.3,0.7-12.4,0.8
	c-1.3,0-2.8-0.6-3.7,0.9c1.4,4.5,1.7,9.2,1,13.8c-0.2,5.8-0.1,11.6,0,17.4c-0.5,8,1,16,0.8,24.1c0,0.4-0.1,0.9-0.1,1.3
	c-0.2,1.7,0,3.4,0.5,5.1c0.5,4.2,0.3,8.4-0.5,12.5c-0.1,3.5,0,7.1,0,10.6c0,0.6,0,1.3-0.2,1.9c-1,2.8-0.6,5.6,0.1,8.4
	c0.2,2.3,1,4.6,0.3,7s0.3,3.1,2.7,3.1c5.8,0,11.6,0.5,17.4,0c1,0,2,0.1,2.7-0.7c0.8-5.8,0.1-11.7,0.3-17.5c0-1.4-0.1-2.7,0-4.1
	c0.4-9-0.6-17.9,0.6-26.9c0.2-1.4-0.6-2.9-0.6-4.4c-1.8-11.1,0.6-22.1,0-33.2c-0.1-1.6,0.2-3.2-0.4-4.8c-0.3-1.7-0.4-3.4-0.3-5.1
	c-0.1-1.5,0-3,0.1-4.4c0.2-2.1-0.7-3.2-2.6-3.9c-0.3-0.2-0.4-0.7-0.2-1c2.9-3.1,6.6-0.3,9.8-1.4c0.6-0.2,1.3,0.7,1.3,1.5
	c0,1.2-1,1.2-1.9,1.2s-1.5-0.9-2.5-0.4c0,0.2,0,0.6,0,0.6c3.6,0.2,4.5,1.9,4.4,5.5c-0.2,6.8,1.3,13.6,0.9,20.4
	c-0.1,1.6-0.5,3.2-0.7,4.8c-2,1.1-2.4-0.1-3.1-1.7c-0.9-2,0.2-4.5-1.7-6.9c-0.4,1.6-0.2,3.3,0.5,4.8c3.5,6.8,3.2,13.8,0.4,20.6
	C132.1,296.2,133.8,298.3,135.1,300.8z"/>
<path id="path36" class="st2" d="M156.1,352.6c1.6-0.7,3-1.8,5.1-1c1.9,0.7,3.2-1.5,4.9-2c1-0.7,2.3-1,3.6-0.9
	c6.2,0.8,12.4-0.7,18.7-0.2c2.8,0.2,4-0.9,4.2-3.8c0.4-5.3,7.4-8.2,11.8-5.2c2,1.4,1.7,3.6,1.5,5.5c-0.3,3,0.6,3.9,3.7,3.6
	c7.1-0.6,14.2,1.4,21.3,0.2c1.6,0.1,2.5,1.2,3.3,2.3c0.2,0.2,0.5,0.5,0.7,0.8c1.5,1.2,3.7,0.3,5.2,1.6c1,0.8,2.2,1.4,3.4,1.8
	l0.3,0.4c-1,1.6-3.2,1.9-3.6,4.3c-0.1,0.9-2.7,1.2-4.1,0.8c-2-0.7-4-1.2-6.1-1.5c-2.2-0.2-0.5-2.8-2.2-3.8c-1.2,2.3-3.5,1.4-5.6,1.6
	c-1.9,0.2-4.5-1.2-5,2.2c-0.2,0.3-0.5,0.4-0.9,0.4c-3.3-1.5-6.8-0.5-10.2-0.8c-1-0.1-1.9-0.8-1.7-1.6c0.6-3.3-1.9-2.6-3.9-2.8
	c1.9-3.5,5.3-1.1,8.2-3c-8.5,0.2-4.4-6-5.7-9.7c-0.8,1.1-0.2,4.8-3.1,1.5c-1.5-1.6-2.1,0.7-1.8,1.7c0.6,1.6,0.4,3.4-0.5,4.9
	c-1,2.1-2,5.5-5.8,3.2c-1.8-1-3.7,0.4-4.6,1.5c-1.4,1.6,1.6,1.6,1.9,3.1c-2-0.2-3.9-0.5-5.9-0.7c-1.6-0.1-3.2-0.1-4.2,1.7
	c-0.9,1.7-2.6,1.3-4,1.2c-2.9-0.1-5.8,0.5-8.5-0.4c-0.8-0.2-1.9-0.5-1.7-1.6c0.1-0.9,1.1-0.7,1.8-1c3.7-1.2,7.6-1.9,11.5-2
	c-3.6-0.9-7.4-0.9-11-0.1c-1.5,0.3-2.8,1.3-3.5,2.6c-2.3,3.5-4.4,4.2-7.5,1.6c-1.2-1.1-2.8-1.6-4.4-1.3c-3.2,0.5-6.5-1.1-9.8,0.4
	c-1.1,0.5-1.6-0.9-1.7-1.9c1.6-0.2,3.5,0.1,2.1-2.6c-0.5-1,0.4-1.8,1.6-1.9C147.9,353.1,152.1,353.3,156.1,352.6z"/>
<path id="path38" class="st4" d="M232.6,209.3c0-0.2,0-0.5,0-0.8c-0.2-0.4-0.1-0.9,0.2-1.1c0,0,0,0,0,0c5.8-1.4,11.6-0.6,17.4-0.5
	c3.1,0.2,6.2-0.1,9.2-1.1c1.2-0.5,2.4-0.7,3.7-0.6c7,0.9,13.9-0.4,20.8-0.2c5.2,0.2,10.4,0.6,15.6,1.2c2.4,0.3,3.7,1.1,4,3.4
	c-1.3,5.7-1.9,11.5-1.6,17.4c0,6.1,0,12.2,0,18.3c0,4-0.2,8-0.6,11.9c-0.9,8.8,0.1,17.6,0.2,26.5c0.1,5.4-0.9,10.7,0.2,16
	c0,1.5-0.3,3-0.8,4.4c-0.6,1.3-0.5,2.8-1.5,3.9c0.4,14.2-0.9,28.5,0.7,42.8c-0.5,0.5-1.4,0.4-1.8-0.1c-0.3-0.4-0.5-0.8-0.6-1.3
	c-0.4-10.5-1.4-20.9-0.9-31.4c1.6-33.6,0.3-67.2,0.7-100.8c0.1-7.1,0-7.2-6.9-8.3c-5.7-0.9-11.5-0.3-17.2-0.3
	c-2.8,0-2.2,2.2-2.1,3.9c0.7,10.2,1.2,20.4,1.3,30.6c0,4.2,0.5,8.5-0.5,12.7c-1.4,1.4-1.9-0.1-2.7-0.8c-0.7-1.2-1.1-2.5-1.2-3.9
	c-1.1-11.6-4.9-22.7-6-34.4c-0.5-5.9-1.1-6-7.1-5.9c-7.2,0.1-14.4-0.9-21.6-1C233.2,209.9,232.9,209.7,232.6,209.3z"/>
<path id="path40" class="st5" d="M232.5,36.9l0.9-0.8H305c-0.4,2.4-1.1,4.5-1,6.5c0.1,2.4,0.4,5,3.6,5.5l0,0c-0.8,3-2.5,6-0.8,9.2
	c0.3,0.6,0,1.7,1.1,1.6c0.8-0.1,1.4-0.8,1.3-1.7c0-0.1,0-0.2-0.1-0.3c-2.4-5.6,3.7-11.7-1.2-17c1.4-1,2.6-2.5,4.1-3
	c4.9-1.5,9.9-2.5,14.9-0.8c2.9,1,5.6,0.2,8.3-0.4c3.1-0.7,6.2-0.3,9.3-0.3c1.4,0,2.8,0.5,2.7,2.4c-0.7,0.5-1.6,0.8-2.5,0.8
	c-5.2-1-10.3,0-15.5,0.5c-1.9,0.2-4,0.8-5.2-1.6c-4.5-1.4-8.7,0.4-12.9,1.5c-0.1,2.3,1,4.5,0.2,6.8c-0.3,5.5,1.3,10.8,2,16.2
	c1.1,7.9,0.4,15.6,0,23.5c-5.3-12.9-6.1-27.1-11.8-39.9c-1.3-1.1-1.1-2.7-1.6-4.1c-0.3-1-0.2-2.2-1.4-2.8
	c-8.7-0.2-17.4-0.1-26.1-0.1c-4.4,0-4.8,0.6-4.9,5c0.1,1.5-0.1,3-0.5,4.4c-0.9,9.6-1.5,19.3-1.8,28.9c-0.1,2.4,2.7,5-0.2,7.2
	c-0.3-0.1-0.6-0.4-0.8-0.6c-0.6-0.8-1.2-2.3-2.4-0.5c-1.8,2.6-3.6,1.9-5.5,0.2c0.6-4,3-6,7-6.4c-0.6-0.1-1.1,0.3-1.6,0.1
	c-1-0.3-1.3-1.2-1.8-1.9c0.2,0.8,1,1.5,0.4,2.3c-0.3,0.3-0.8,0.4-1.2,0.1c0,0-0.1-0.1-0.1-0.1c-0.4-5.3-0.7-10.6,0.6-15.9
	c0.9,2.7,0.7,5.6,2.2,8.3c1.4-2.1,1.6-4.5,1.8-6.8c-0.6,1.3,0.5,3.9-1.5,3.9s-1.9-2.5-2.1-4.1c0-0.5-0.2-1-0.5-1.3
	c-0.5-1.2,0.6-2.6-0.4-3.7c-1.2-0.5-1.8-1.9-1.3-3.1c0,0,0,0,0,0c2-4.9,0.9-9.8,0.2-14.7c-1.3-2.7-3.8-1.1-5.7-1.5
	c-4-1.9-8.2-1.2-12.4-0.8c-1.8-0.1-3.7,0-5.5,0.2c-0.6,0.2-1.2,0.3-1.6-0.3C232.7,37.3,232.6,37.1,232.5,36.9z"/>
<path id="path42" class="st6" d="M182.3,72.1c-1.9,1.5-4,0.4-6,0.8c-4.9,2.2-10,0.8-15,1.1c-11.8,0-23.6,0.2-35.4,0
	c-2.3,1.1-4.9,1.2-7.2,0.2c-1.9,0-2.6,1.2-2.7,2.9c-0.6,6.1-1.5,12.1-1.5,18.2c0,14.3,0,28.7,0,43c0,4.6,0.6,9.2,0.9,13.8
	c0.4,5.7,0.9,11.4,0.3,17.1c-0.5,1.7-0.7,3.5-0.5,5.3c-0.1,10.6,0.2,21.3-0.4,31.9c0.1,1.9-0.9,3.7-2.4,4.7
	c-0.4,0.2-0.9,0.3-1.3,0.3c-6.4-0.6-12.9,0-19.3-0.9c-3.5-0.5-7.2-0.1-10.7-1.1c-1.5,0.9-2.9,1-3.9-0.6c-1.3-2.1-2.9-4.3-1.6-6.9
	c1.2-2,1.8-4.4,1.7-6.8c-0.7-0.9-0.7-2.1,0-3c0-14.1-0.1-28.2,0-42.3c0-5.1,1.5-10.5-0.2-15.4c-1.8-5.2-1.2-10.3-1.2-15.4
	c-0.2-11.8-0.1-23.6,0-35.4c0-2.4-1.4-4.8,0.6-7.1c0.5-0.6-0.2-1.8-0.9-1.8c-2.5,0.1-4.3-2-6.7-1.8c-8.5,0.7-17.1-0.8-25.6,0.3
	c-1.6,0.2-3.8,0.2-4.9-1.9c0.3-0.3,0.7-0.5,1.1-0.6c7.5,0.1,14.9,0.4,22.4-0.2c0.6,0.1,1.2,0.3,1.8,0.4c1.5,0.1,3,0.1,4.5,0
	c2.1,0,4.3,0,6.4,0.1c3.4,0.2,4.9,1.8,4.4,5.1c-2,12,0.1,24.1-0.4,36.2c-0.1,2.2,0,4.5-0.2,6.7c-0.4,6.9,0.2,13.7,1.8,20.4
	c0.8,3.7-0.3,7.2-0.3,10.8c0.1,12,0.1,24,0,36c0,5.4,0.2,10.7-1.2,16c-1,3.8,0.2,4.8,4,4.1c2.7-0.5,5.3,0.2,7.8,0.6
	c5.6,0.9,11.2,0.5,16.8,0.6c4,0.1,4.2-0.3,4.3-4.2c0-2.1,0-4.2,0-6.4c0.1-24.7-0.2-49.4,0-74.2c0-6.6-0.2-13.2-0.5-19.8
	c-0.4-9.4,0.7-18.9,0.6-28.4c0-3.3,2-4.6,5.7-4.1c2.5,0.4,4.9,0.9,7.4,0.1c5.1-0.3,10.2,0.7,15.3,0.6c13.5-0.1,26.9-0.2,40.4,0
	C181.2,71.2,181.9,71.5,182.3,72.1z"/>
<path id="path44" class="st7" d="M324.1,37.5c1.7,1.2,3.5,0.7,5.4,0.5c5.2-0.6,10.4-1.3,15.6-0.3c1.6,0.5,1.8,1.4,1.8,3
	c0,5.1,0.4,10.3-0.7,15.4c-0.4,1.7,0.4,3.3,0.5,5l-0.8,22.4c-0.3-3.8-2.1-7.3-2.2-11.3c-0.1-3.9,0.3-8.2-0.8-12.2h-1.2l-1.4,24.6
	c-3-4.6,1.6-10.3-3.7-13.2c3.3-1.9,3.4-2.6,0.4-5.6c-0.8-0.8-1.2-1.8-0.1-2.5c2.5-1.4,2.2-3.6,2.2-5.9c0-1.1-0.6-2.8,1.2-3
	s2.1,1.3,2.5,2.7c0.1,0.3,0.2,0.7,0.6,1.8c0-3.2,0.2-6.4,0.6-9.5c0.5-3.8-2.1-4.8-6.1-2.5c-1,0.6-1.6,1.7-2.1-0.5
	c-0.3-1.5-1.5-1.1-2.2-0.1c-2.6,3.4-5,3.1-7.5-0.1c-1-1.3-2.5-0.7-3.9-0.8c-2.6-0.2-5.3,0.6-7.8-0.6c-0.7-0.3-1.5-0.6-1.4-1.5
	c0.1-1,1.1-0.8,1.8-0.9c3.3-0.4,6.7-0.1,10,0.7c0-2-1.8-1.9-2.9-2.7L324.1,37.5z"/>
<path id="path46" class="st8" d="M360.1,214.6c7.4,6.6,6.2,15.7,5.7,24c-0.5,10.2-0.2,20.4-0.4,30.6c0,2.7-1.1,4-3.9,4
	c-1.6-1-3.6,0.2-5.2-0.7h-9c-0.1,1-3.5-0.2-1.5,2.2c0.4,2.2,2.2,3.3,3.8,4.5c0.9,0.1,1,1,1.5,1.5c0,0.2,0,0.5,0,0.7
	c0.2,0.1,0.3,0.4,0.2,0.6c-0.1,0.2-0.2,0.3-0.2,0.3c-0.6,0.1-1.3,0-1.7-0.5c-6.1-6.1-12.7-11.8-18.1-18.5c-1.6-3.5-1.5-7.3-1.5-11
	c0-4-0.1-8,0-12c0.1-2,0.3-4,2.4-5.2c4.2-0.5,5.4,0.3,6.6,4c0.7,2.3,0.6,4.7,0.6,7c0.3,6.4-0.6,12.9,0.6,19.4c0.7,3.7,1.9,5,5.6,5
	c3.2,0.1,6.5,0.1,9.7,0c7.3,0,7.8,0.1,8-7.2c0.4-12.2,0.6-24.4,0-36.6c-0.3-6.1-3.8-10.8-9.3-13.5c-4.3-2.1-8.7-3.7-13.6-3.5
	c-7,0.2-14-0.8-20.9,0.8c-2.2,0.4-4.3,1.2-6.1,2.5c-1.3,0.9-2.8,1.5-3.7,3c-0.2,0.3-0.4,0.5-0.7,0.8c-1.3,1.2-2.2,2.8-2.6,4.5
	c-1.1,2.7-1.7,5.5-1.6,8.4c0,9.7,0,19.5,0,29.2c0.1,8.3,2,16.1,7.4,22.6c0.3,0.5,0.5,1.1,0.6,1.8c0,0.6-0.1,1.2-0.4,1.7
	c-1.3,0.9-1.8-0.3-2.4-0.9c-2.9-2.9-5-6.6-5.9-10.6c-0.8-1.2-1.3-2.6-1.5-4c-1.3-3.5-1.8-7.3-1.4-11c0.7-10.6,0.2-21.1,0.4-31.6
	c0-0.6,0-1.3,0-1.9c0.3-1.9,0.8-3.8,1.7-5.5c1.3-1.4,2.4-3,3.1-4.8c1.2-1.8,2.8-3.3,4.7-4.4c1.3-0.7,2.6-1.3,4-1.7
	c1.6-0.4,3.1-1.4,4.9-1.5c1.6-0.1,3.1-0.1,4.7-0.1c1.6,0.1,3.2-0.1,4.7-0.4c5-0.4,10.1-1,15,0.6c0.8,1.1,2,0.6,3,0.8
	c0.3,0.2,0.6,0.4,0.8,0.7h1.5c0.8,0.9,2.2-0.3,3,0.8c1,1.2,2.5,1.5,3.8,2.2C357.9,212.2,359.7,212.4,360.1,214.6z"/>
<path id="path48" class="st9" d="M111.1,210.8h0.8c1.5-1.2,3.3,0,4.9-0.6c0.3,0,0.7,0,1,0.1c1.4,0.4,2.5,1.4,3,2.7v1.5
	c1.3,2.6,0.5,5.5,1.1,8.1c-0.1,1.8,0.3,3.8-1.1,5.4l0,0c-1.1,3.9,0.3,8.1-0.8,12c-1.6,1-3.3,0.8-5.1,0.8H99c-0.8,2.2-0.3,4.5,0,6.7
	c-1.4,2.7,1.3,4.9,0.8,7.5c-1.1,2.9,0.3,6.1-0.7,9v4.5c-1,2.4,0.2,5.1-0.7,7.5v3c0.5,1.4,0.5,3,0,4.5c-0.3,4.7,0.2,9.5,1.2,14.1
	c0.4,1.8,0,3.7-0.1,5.5c-0.8,9.7-0.8,19.4,0.1,29.1c0.6,6-0.3,12,0.5,17.9c0.1,1-2.1,3.5-4.7,3.2c-2.4-0.1-4.7-0.4-7-0.9
	c-3.9-1.1-7.7,1-11.7,0.2c-1.6-0.2-3.1-0.5-4.6-1l0,0c-0.2-0.4-0.1-1,0.4-1.2c0,0,0,0,0,0c0.3-0.2,0.7-0.5,1-0.4
	c5.8,0.9,11.6-0.9,17.5,0.3c5.4,1.1,6.2,0.2,6.3-5.4c0.3-11-1.1-21.9-0.8-32.9c0.5-22.3-0.2-44.6,0.1-67c0.1-5.7,0.5-6.2,6.2-6.3
	c4.7-0.1,9.5,0.3,14.2-0.2c1.4-0.7,1.3-2,1.3-3.2c0-6-0.1-12,0-17.9c0-2.3-1-3.4-3.1-3.8c-1.6-0.3-3.2-0.4-4.8-0.3
	c-10.2-0.1-20.4,0.3-30.7-0.2c-3.9-1.1-8-0.4-11.9-0.5c-5.9-0.1-11.7,0-17.6,0s-6.6,1.3-6,7c0.9,6.7,0.8,13.4-0.2,20.1
	c-0.2,0.4-0.7,0.6-1.2,0.4c0,0,0,0,0,0c-1-2.8,0.2-5.5,0-8.3c-0.9-2.7,0.3-5.6-0.7-8.2v-3.8c-0.6-2-0.6-4,0-6c0.4-2.8,2.4-3,4.7-3
	c11.9,0,23.9,0,35.8,0c2.7-1.6,5.7-0.9,8.4-0.6C97.7,210.7,104.4,210,111.1,210.8z"/>
<path id="path50" class="st10" d="M344.3,207.1h-15c-1.5,0-3.2-0.5-4.5,0.7h-5.2c-3-0.3-6.1,0.7-9.1-0.7c-2.2-0.9-4-0.7-5.1,1.7
	c-0.4,0.8-1,1.7-2.3,1.2c-0.8-0.1-1.5-0.3-1.2-1.4c0.2-0.6,0.5-1.3-0.5-1.4c-10.8-0.6-21.6-2-32.4-0.4c-1.5,0.1-3-0.1-4.4-0.6
	c-3-0.9-5.3,1.6-8.2,1.5c-7.9-0.1-15.8,0-23.8,0c-1.2-0.4-2.7,0.4-3.8-0.8c-2-1-4.3-1.2-6.5-0.6c-0.8,0.2-2.1-1.1-3.2-1.7
	c1.4-1.3,2.9-0.2,4.3-0.3c2.8,0.1,5.5,0.7,8.2-0.2c7.7-0.7,15.4-0.8,23.1-0.2c3.6,0.2,7.2,0,10.8,0.1c7.5,0.7,15-0.8,22.5-0.3
	c1.1,0.3,2.2,0.4,3.3,0.3c13.7-0.1,27.3,0.2,41,0.4c2.7,0,5.4,0.2,8.1,0.8l2.9,0.1C343.3,206.1,345,206,344.3,207.1z"/>
<path id="path52" class="st11" d="M182.3,72.1l-1.8-0.1c0.5-2.3,0.8-4.6,0.7-7c0-8.5-0.1-17,0-25.5c0-2.7-1-3.7-3.7-3.8
	c-20.8-1.2-41.7-1.2-62.5-0.5c-16.7,0.6-33.4,0.1-50.2,0.6c-6.3,0.2-12.2-2.1-18.6-1.6c-5.6,0.5-6,0.7-6.2,6.3
	c-0.3,8.7,0.1,17.4,0,26.1c0,1.6,0.3,3.3-0.8,4.7l-1,0.1c-1-2.3-0.7-4.6-0.4-7.2c0.4-5-0.3-10.1-0.4-15.2c-0.1-4.4,0-8.9,0.2-13.3
	c0.1-2.1,1.8-3.2,3.9-3.3c10.7-0.1,21.4,0.3,32.1,1.3c2.9,0.2,5.7,0.2,8.6,0.1c9.6-0.2,19.2,0.7,28.8-0.7c1.9-1,4.1,0.3,6-0.7h27
	c3.8-2.2,7.5,0.1,11.2,0h6.8c2.7,1,5.6-0.3,8.3,0.7h3c1.1,0.9,2.6-0.1,3.8,0.7c6.7,0.1,6.7,0.1,6.7,6.9c0,2.5,0,4.9,0,7.4
	c-0.6,2.7-0.6,5.5,0,8.2c0,3.8,0,7.6,0,11.4C183.9,69.4,183.7,70.9,182.3,72.1z"/>
<path id="path54" class="st12" d="M72.2,350.9l-0.2,1c-1.3-1.2-0.7-2.8-0.7-4.3c0-20,0-40-0.1-59.9c0-2.2,0.1-4.2-1.7-6.4
	s-0.9-6.1-0.4-9.1c1.2-7.2,0.3-14.4,0.6-21.6c0.2-1,0.2-2-0.1-3c-0.9-2,2.3-5.1,0.7-5.1c-2.5,0-5.1-1.4-7.7-0.4
	c-1.3,0.6-2.7,0-4-0.2c-3.2-0.7-6.5-0.5-9.6,0.6c-3,1.1-5,0.6-6.4-2.4l0.9-0.1c2.1-1.5,4.6-0.7,6.9-0.9c6-0.3,12-0.2,18-0.1
	c3.6,0.1,5,1.2,4.4,4.4c-1.1,6.9,0.5,13.6,0.1,20.5c-0.9,17,1.8,34,0.6,51c-0.5,7.8-0.1,15.6-0.6,23.4c-0.2,2.5,0.9,4.9,0.8,7.4
	C73.9,347.7,74.2,349.6,72.2,350.9z"/>
<path id="path56" class="st13" d="M240.1,354.1c-1.8-1.5-4.3,0.1-6-1.5c1.3-1.3,3-1,4.6-1c5.5,0,10.9,0,16.4,0c1.3,0,2.8,0.3,3.8-1
	c0-5.8-0.5-11.6-0.4-17.4c0.1-10.2,0.1-20.4,0-30.6c-0.2-1.9,0-3.7,0.5-5.5c2-1.9,1.9,0.6,2.7,1.3c1.4,3.7,1.6,7.7,2.5,11.6
	c0.9,5.1,1.7,10.3,3,15.3c1.3,6.6,1.6,13.3,2.5,19.9c0.6,4.7,0.8,4.9,5.5,5c5.1,0,10.2,0,15.3,0c2.7,0.3,5.5-0.7,8.1,1l0.2,0.2
	c0.2,0.2,0.2,0.5,0,0.6c0,0,0,0-0.1,0c-0.6,0.5-1.2,1.4-1.7,1.3c-6.8-1.6-13.8,0.2-20.6-0.6c-2.7-0.3-5.5,1.7-8,0
	c-2.8-2-0.4-5-0.8-7.5c-1.1-6.7-1.7-13.4-2.7-20.1c-0.4-2.4-1.7-4.6-1.6-7.2c0.1-1.8-1.8,0.5-2.5-0.9c-0.2-0.4-0.4,0.8-0.4,1.1
	c0.2,9.7-0.7,19.4,1.3,29c0.2,1.5,0.2,3-0.1,4.5c-0.2,1.9-1.4,2.9-3.3,2.4c-3.6-0.9-7.1-0.3-10.7,0.3c-1.9,1.1-4.1-0.1-6.1,0.5
	C241,354.7,240.4,354.5,240.1,354.1z"/>
<path id="path58" class="st14" d="M312.1,285.1l0.1-1.7c3.3,0.7,4.6,3.9,7,5.7c1.1,1.1,2.2,2.2,3.3,3.3c3.1,3.1,6.3,6.2,9.4,9.4
	c0.9,1,2.4,2,1.1,3.7c-1.6,0.8-0.9,2.4-1.1,3.6c-0.6,3.7-0.8,7.4-0.7,11.1c0,2,0.6,4,1.6,5.6c0.4,0.9,1.4,1.5,2.4,1.4
	c1.2-0.2,1.3-1.4,1.4-2.4c0.1-5.4,0.7-10.9-2.7-15.8c-0.7-1.1-2-2.4-0.4-3.9c3.7,1.2,4.3,4.7,5.4,7.6c1.6,4.6,1.8,9.7,0.4,14.4
	c-1,3.6-3.7,4.6-6.9,2.6c-2.6-1.6-4.1-4.5-4-7.6c0-4.7-0.2-9.5,0.1-14.2c0.4-4.5-0.6-5.4-4.9-6c-5.6-0.6-11.2-0.8-16.8-0.7
	c-2.3,0-3.4,0.8-3.4,3.3c0,11.1-0.2,22.2,1.3,33.2c0.8,5.6,3.7,9.3,8.3,12.2c1.1,0.7,2.7,0.9,3.1,2.5c-0.5,0.7-1.1,0.6-1.7,0.2
	c-7-2.5-11.7-9-12-16.4c-0.5-9.3-2-18.6-1.4-27.9c-0.8-1.1-1-2.5-0.8-3.8l0.8-3.7c0.9-2.2,2.8-2.6,4.9-2.6c4.6,0,9.2-0.1,13.7,0
	c0.6,0,1.2,0,1.8,0c0.7,0,1.4,0.1,2.1,0.3c0.2-0.1,0.6,0.5,0.6-0.2c-0.5-0.5-0.9-1.1-1.3-1.7c-0.5-0.8-1.2-1.5-2-2
	c-0.9-0.5-1.6-1.2-2.2-2c-0.8-1.3-1.9-2.4-3.1-3.2C313.9,288.2,311.8,287.5,312.1,285.1z"/>
<path id="path60" class="st15" d="M187.6,36.1c-2.1-2-4.1-4.2-7.4-5c3.8-2.6,7.4-4.9,11.9-4.7c0.1,1.5-0.3,2.7-2,3.1
	c-1.4,0.3-2.4,1.7-2.1,3.1c0.2,1.3,1.4,2.2,2.7,2.1c1.2,0,1.9,1.1,2.9,1.5c-0.5,1.1-1.1,1.4-2.2,0.5S188.9,36.2,187.6,36.1z"/>
<path id="path62" class="st16" d="M366.8,306.9c0,7.2,0,14.5,0,21.7c-1,2.7,0.3,5.6-0.8,8.3c-1.9,4.4-4.1,8.5-8.2,11.4l-0.4-0.4
	c-0.3-2.2,1.6-3.1,2.6-4.5c0.9-1.3,1.8-2.6,2.5-4c1.3-2.7,1.9-5.6,1.7-8.6c0-5-0.3-10.1,0.2-15.1c0.7-2.3,0.8-4.8,0.1-7.1
	c-0.1-2.2-1.1-4.4-0.4-6.6c0.2-0.3,0.6-0.4,1-0.2c0,0,0,0,0.1,0c0,0.2,0,0.5,0,0.7C367.3,303.3,365.8,305.5,366.8,306.9z"/>
<path id="path64" class="st17" d="M314.3,352.6l1.7-0.1c1.3-1.1,2.8-0.9,4.2-0.6c9.4,2.2,18.8,1.2,28.1-0.6c2.2-0.4,4.3-1.2,6.2-2.5
	c0.9-0.6,1.8-1.4,3.1-0.9l0.3,0.3l-2.3,2.9c-0.8,0.8-2,1-3,1.5l0,0c-3,1.7-6.6,1.1-9.8,2.2h-3c-2.7,0.5-5.5,0.5-8.2,0
	C325.7,355,319.9,354.8,314.3,352.6z"/>
<path id="path66" class="st18" d="M365.3,301.6h-0.9c-3-1.4-3.3-4.7-5.1-7c-1.9-3-4-5.9-6.3-8.5c-0.6-1.3-2.1-2.2-2-3.9l0.1-0.9
	C357.5,286.7,362.4,293.7,365.3,301.6z"/>
<path id="path68" class="st12" d="M111.1,210.8H82.6l-1.5-1.5c4-1,8.1-0.2,12.1,0.2c5.1,0.5,10.1,0.4,15.2,0.6
	C109.3,210.1,110.3,209.9,111.1,210.8z"/>
<path id="path70" class="st19" d="M346.6,61c-2.6-2-1.4-4.9-0.9-7c0.9-4,1.4-7.9-0.1-11.8c-0.6-1.5,2.1-3.3-0.6-4.6l2.1,0.2
	C347.5,45.5,347.3,53.3,346.6,61z"/>
<path id="path72" class="st20" d="M337.6,162.9c2.2-0.4,4.5,0.7,6.7-0.2c-1.4,1.3-0.3,2.6,0,4c-0.2,0.2-0.4,0.3-0.7,0.2
	c-0.9-0.5-1.7-1.4-3-1.1c-1.1-0.8-2,0.1-3,0.2c-3.5-0.5-7-0.6-10.5-0.8l-0.8-0.2c0.3-2.1,2-1.1,3.2-1.4
	C332.2,162.8,335,164.3,337.6,162.9z"/>
<path id="path74" class="st20" d="M344.2,162.8c0.7-6.3,0.1-12.8,1.5-19c0,5.8,0.6,11.7-0.6,17.5C345,161.9,344.7,162.5,344.2,162.8
	z"/>
<path id="path76" class="st21" d="M342.8,354.8c3-1.8,6.5-1.4,9.8-2.2c0.3,2.2,0.6,3.7-2.6,1.8C348.1,353.2,345.3,355.3,342.8,354.8
	z"/>
<path id="path78" class="st2" d="M241.6,354.1c2-1.3,4-0.2,6,0c-0.6,2.1-2.1,2-3.8,1.5C243.3,354.8,242.1,355,241.6,354.1z"/>
<path id="path80" class="st22" d="M343.6,166.9c0.3,0,0.5-0.1,0.7-0.2c1.1,3.3,1.4,6.6-0.6,9.8C343.3,173.3,345.6,170.1,343.6,166.9
	z"/>
<path id="path82" class="st13" d="M264.6,352.8c-0.3-1.6-1-3.1-1.9-4.4C265.7,349.3,265.8,349.6,264.6,352.8z"/>
<path id="path84" class="st18" d="M345.8,274.6c-1-0.4-1.8-1-2.4-1.9c1.3-0.7,2.6-0.2,3.9-0.3L345.8,274.6z"/>
<path id="path86" class="st5" d="M307.6,48.1c-1.4-2.6-1.4-2.6-1.4-5.1C308.1,45.9,308.1,45.9,307.6,48.1L307.6,48.1z"/>
<path id="path88" class="st21" d="M331.6,354.9h8.2C337.2,356,334.2,356,331.6,354.9z"/>
<path id="path90" class="st12" d="M42.1,223.6c1.6,2.6,0.4,5.5,0.7,8.2C41.3,229.2,42.4,226.3,42.1,223.6z"/>
<path id="path92" class="st18" d="M366.1,336.8c0.4-2.7-0.8-5.6,0.8-8.3C366.4,331.3,367.7,334.2,366.1,336.8z"/>
<path id="path94" class="st10" d="M360.1,214.6l-3.8-3C358.5,211.5,360.6,211.4,360.1,214.6z"/>
<path id="path96" class="st23" d="M300.1,304.6c0.7,1.1,0.9,2.5,0.8,3.8h-1.5C299.5,307.1,298.8,305.6,300.1,304.6z"/>
<path id="path98" class="st10" d="M348.1,208.6l-0.8-0.7c0.1-0.9-0.2-2.2,1.3-2.1c0.9,0.1,1.9,0.5,0.4,1.4
	C348.5,207.4,348.1,207.9,348.1,208.6z"/>
<path id="path100" class="st12" d="M77.3,192.1c0,1,0,2,0,3c-0.9-0.6-2.1-1.1-1.9-2.4C75.6,191.8,76.6,192.2,77.3,192.1z"/>
<path id="path102" class="st12" d="M42.1,213.8c0,2,0,4,0,6C40.9,218,40.9,215.7,42.1,213.8z"/>
<path id="path104" class="st6" d="M117.1,32.3c-1.8,1.5-4,0.4-6,0.7C112.9,31.6,115.1,32.7,117.1,32.3z"/>
<path id="path106" class="st18" d="M356.3,272.3c1.8,0.3,3.7-0.7,5.2,0.7C359.8,272.8,357.9,273.8,356.3,272.3z"/>
<path id="path108" class="st18" d="M351.1,280.6c-0.7-0.3-1.2-0.8-1.5-1.5c0.4-0.6,1-1.6,1.5-1.1S351.1,279.7,351.1,280.6z"/>
<path id="path110" class="st18" d="M366.8,306.9c-1.3-1.2-0.4-3.2-1.5-4.5C368,303.1,366.3,305.3,366.8,306.9z"/>
<path id="path112" class="st10" d="M352.6,209.3c-1-0.1-2.2,0.3-3-0.8C350.6,209,352.2,206.7,352.6,209.3z"/>
<path id="path114" class="st24" d="M298.6,351.9c0-0.2,0-0.5,0.1-0.7l1.4-0.1c0.4,0.3,0.7,0.8,0.3,1.1
	C299.7,352.8,299.1,352.5,298.6,351.9z"/>
<path id="path116" class="st18" d="M348.9,275.3c0.4-0.3,0.7-0.6,1-0.6s0.5,0.3,0.7,0.5c-0.2,0.2-0.5,0.6-0.7,0.6
	S349.3,275.6,348.9,275.3z"/>
<path id="path118" class="st22" d="M343.6,180.1c-1-1.3-1.2-2.5,0.2-3.7L343.6,180.1z"/>
<path id="path120" class="st21" d="M352.6,352.6c0.8-0.9,1.8-1.4,3-1.5C355,352.5,353.9,352.7,352.6,352.6z"/>
<path id="path122" d="M258.6,122.2l0.4-1.4c1.7-3.6,1.2-7.4,0.8-11.2l-0.1-3.5c-1.7-1.3-3.4-0.9-5.1-0.2c-1.8,0.5-3.8,0.3-5.4-0.6
	c-2.5-0.4-5.1-0.4-7.6,0.1c-1.2,0.2-2.4,0.1-3.6-0.2c-3.5,0-7,0-10.5,0c-1.1,0-2,0-2.2-1.4c0.5-3.6,0.4-7.2-0.3-10.7l0.3-2.2
	c0.6-1.9,0.1-3.9,0.3-5.8c0.2-2.6-1-5.6,0.5-7.5s4.6,0,7-0.9c3.8,0.9,8,0,11.6,2.1c1.7-0.7,3.4-0.2,5.1-0.3s3.5-0.4,4.2,1.5
	s-1.2,2.7-2.4,3.7c-2.8,1.8-6,1.2-9.1,1.5c-2.1,0.2-2.9-1.5-3.1-4.1c-0.2,1.8-1.6,3.3-3.5,3.4c-1.9,0.4-3.2-1.2-4.9-1.5
	c-0.8,0.9-0.8,2.1-1.1,3.2c-2,6.9,0.9,10.4,8,9.4c3.3-0.6,6.7-0.5,10,0.2c1.6,0.3,3.2,0.2,4.8-0.2c2-0.5,3.9-0.7,5.7,0.7
	c1.1,2,3.6,1.8,5.2,3.1c0.2,0.3,0.5,0.6,0.6,0.9c2.9,3.7,1.1,8,1.5,12c0.1,0.6-0.3,1.1-0.9,1.2c-0.1,0-0.2,0-0.2,0
	c-0.8-0.1-1.4-0.7-1.5-1.4c-0.6-2.2,0-4.6-0.5-6.8c0.4,1.9,0.1,3.9,0.3,5.8c0.1,1.4,0.1,2.7,1.9,3.2c1.5,0.5,1.2,2.1,1.1,3.2
	c-0.1,7.6-0.4,15.3,0,22.8c0.3,5.8-0.8,11.4-0.7,17.1c0,4.5-0.5,5-4.9,5c-5.5,0-11,0-13.9,0c4.4-0.4,11.3,0.9,18.3-0.5
	c1.6-0.3,3.3,0.8,5,1.2c0.5,0.1,0.8,0.6,0.7,1.1c0,0,0,0,0,0c-0.1,0.4-0.4,0.6-0.8,0.7c-0.7,0.2-1.5,0.3-2.2,0.2
	c-10.7,0-21.4,0.1-32.1-0.1l-4.5,0.2c-1.8,0.2-3.6,0.6-5.4-0.1c-1-2.7-1.3-5.5-0.8-8.4c0.4-3.2,0.4-6.5,0-9.7
	c-0.2-1.8-0.2-3.5,1.5-4.6c6.1,1,12.2-0.5,18.3,0.4c4.1,0.6,8.3-0.3,12.5-0.3l0.8,0.1c1.9-2.8,1.4-6,0.9-9
	C257.5,129.7,258.1,126,258.6,122.2z"/>
<path id="path124" class="st23" d="M337.6,162.9l1.6,1.1c-4.3,1.1-8.8-0.8-12.9,1l-0.3,0.2l-0.3-0.1c-4.5,0.4-9,0.7-13.5-0.2
	c-0.8-0.2-1.7-0.5-2.4,0.3c-2.2,0.4-4.5,0.4-6.7-0.1c-1.7-1-3.7,0.1-5.5-0.6c-8.4,0.9-16.8,1.9-25.2,0.6c-0.1-0.6,0.3-1.1,0.8-1.2
	c0.1,0,0.1,0,0.2,0c3.9,0.1,7.8-1.4,11.7-0.7c3.7,0.7,7.6,0.6,11.2-0.3c2.1-0.4,3-1.4,3-3.7c-0.1-10.2-0.1-20.4,0.1-30.6
	c0-2-1.9-3.3-1.4-5.2c0.6-2.6,0.1-5.3,0.3-8c0.9-1.2,1.3-0.3,1.8,0.3c3,4.6,2.8,10,3.8,15l0,0c0.2,1.2,0.5,2.4,0.9,3.6
	c4.1,8.8,3.8,18.6,6,27.9c0.5,1,1.4,0.7,2.2,0.6c3.2-0.5,6.4,0.1,9.6,0.3h1.5c1.4,0.5,3,0.5,4.5,0l2.8-0.1c1.4-0.4,2.8-0.4,4.2,0
	L337.6,162.9z"/>
<path id="path126" class="st25" d="M296.3,162.8c-2.2,1.3-4.8,1.8-7.4,1.3c-5.4-1.2-10.5,0.9-15.8,0.4c-0.3,0-0.6,0.4-0.9,0.6
	l-1.5,0.2c-11.7,0.3-23.5,0.3-35.2,0l-0.8-0.3c1.3-1.1,2.9-0.6,4.3-0.6c10,0,20.1,0,30.1,0l0.1-1.2h-27.9v-1.1
	c2-0.9,4.2-0.3,6.3-0.4c2.8-0.1,5.6,0.1,8.5,0c7.7-0.3,8.1,1.8,7.9-7.7c0-2.1,0.7-3.9,1-5.9c0.3-0.8,0.4-1.7,0.4-2.5
	c-1.7-9.3-0.3-18.7-0.7-28.1c0-1.2,0.4-2.2-1.7-2.9s-1.5-3.8-1.6-5.7s0.2-3.6-2.4-5.1c3.1-0.3,4.5-0.5,4.2,2.7
	c-0.2,2-0.6,4.4,1.3,7.2c0.1-5.3,0.8-9.7-1.3-13.9c1-3.6,0.8-7.5-0.4-11c-1-3.3-0.6-4.2,1.9-4.8l0.2,0.2c0,1.3-0.4,2.6,0.5,3.7
	c0.2,0.1,0.3,0.2,0.3,0.4s-0.1,0.2-0.2,0.2c2.1,10.5,0.1,21.1,0.8,31.6c0.6,9.2,0.1,18.4,0.1,27.6c0,4-1.5,7.8-0.8,11.9
	c0.3,1.5,0.5,2.4,2.4,2.4C277.6,162.3,286.9,162.6,296.3,162.8z"/>
<path id="path128" class="st26" d="M340.6,205.2c-17.5-0.6-35,0.1-52.5-1c-0.2-0.2-0.3-0.4-0.2-0.6s0.2-0.3,0.2-0.3
	c10,0,19.9-0.4,29.9,0.1c6.7,0.4,13.4,0.5,20.2,0.6C339.1,204.1,340.2,203.9,340.6,205.2z"/>
<path id="path130" class="st27" d="M254.8,75.4c-1.3-3.1-3.9-5.9-1.5-9.6c1-2,0.7-4.3-0.7-6c-0.9-1-1-2.4-0.3-3.5
	c1.3-1.9,1.3-3.9,1.3-6c0-0.7-0.1-1.7,0.9-1.8c0.9-0.1,1.2,0.8,1.4,1.5c0.2,1,1,1.8,0.5,2.9c-2.4,5.4-1.1,10.9-0.9,16.4
	C255.4,71.3,255.2,73.4,254.8,75.4z"/>
<path id="path132" class="st28" d="M228.2,135.7c3.1-1.6,6,0.4,9-0.4c2-0.6,4.1-0.6,5.6-2.4c0.5-0.9,1.7-1.1,2.5-0.6
	c0,0,0.1,0.1,0.1,0.1c1.1,1.1-0.2,1.9-0.9,2.3c-3.1,2.1-5.8,5.2-10,5.3c-1,0.1-1.9-0.2-2.7-0.8c-0.6-0.8,1.2-1,1.1-2.1
	C231.8,135.8,229.8,137.3,228.2,135.7z"/>
<path id="path134" class="st29" d="M226.1,142.7c-0.5,0.5-1.3,0.9-1.2,1.7c0.9,6.8-1,13.7,0.5,20.6c-0.1,0.3-0.5,0.4-0.8,0.3
	c-0.1,0-0.2-0.1-0.2-0.2c-1.5-2.3-1.9-5.2-1.1-7.8c0.4-2.2,0.5-4.4,0.3-6.6c-0.1-1.1,1.4-4-2.3-2.5c-1.1,0.5-1.7-1.3-1-2.4
	c1-1.6,1.9-3.5,4.1-3.9C224.8,142.4,225.7,142,226.1,142.7z"/>
<path id="path136" class="st30" d="M194.3,132.8c-0.4-0.9-0.6-1.9-0.7-2.9c0-18.2,0-36.4,0-54.5c0-0.4,0.1-0.7,0.2-1.1
	c0.9,1.2,0.5,2.7,0.5,4c0,12.6,0.1,25.2,0,37.8c-0.1,5.6,0.6,11.2,0.8,16.7C194.8,133.2,194.6,133.2,194.3,132.8z"/>
<path id="path138" class="st27" d="M259,39c0.3,5.6,1.3,11.2-0.5,16.7c-0.2,0.6,0.4,1.4,0.6,2.1c-3.5,0.6-2.7-2.1-2.1-3.4
	c2.4-4.5,0.3-9,0.2-13.5c0-1.1-0.9-1.7-2.1-1.7s-1.5,0.6-1.1,1.7c0.2,0.4,0,0.8-0.3,1c-0.1,0-0.2,0.1-0.3,0.1
	c-0.5,0.1-1.1-0.2-1.2-0.8c0-0.1,0-0.2,0-0.2c0.1-1.7-1.7-1.6-2.3-2.6c1-0.7,2.1-0.2,3.1-0.3C254.9,38.3,257.2,37.2,259,39z"/>
<path id="path140" class="st31" d="M265.6,204.7c-6.7,0.5-13.4-0.6-20.1-0.6c-4.8-0.1-9.7,0.1-14.5,0.7c-0.3-0.2-0.3-0.3-0.3-0.5
	c0.1-0.2,0.2-0.2,0.3-0.2c0.8-0.9,1.8-0.7,2.8-0.7h35c1,0,2-0.2,2.8,0.7C269.7,205,267.6,204,265.6,204.7z"/>
<path id="path142" class="st32" d="M193.8,58.5c-0.8-6.3-0.1-12.7-0.3-19c-0.1-1.8,0.9-2,2.3-2c5,0,9.9-0.1,14.9-0.1
	c2.1,0,4.2,0.1,6-1.4c1.5-1.3,3-0.4,4.5,0.2c-7.4,3-15.1,2.1-22.7,2c-3.2,0-4.4,1-4.4,4.3C194.2,47.9,194.9,53.2,193.8,58.5z"/>
<path id="path144" class="st33" d="M226.1,142.7c-0.6-0.1-1.3-0.1-1.7-0.8c9.6-0.1,19.1,0.6,28.6,0c1.2-0.1,2.5-0.4,3.5,0.6
	c-4,1.8-8.4,1.1-12.4,0.8c-3.7-0.2-7.4-0.2-11.1,0.1C230.7,143.5,228.3,143.3,226.1,142.7z"/>
<path id="path146" class="st27" d="M338.3,165.2c0.9-0.1,1.8-0.5,2.4,0.6c-3.6,1.1-1.1,3.7-1.3,5.6c-0.1,0.9,0.8,1.8,1.1,2.7
	c0.3,1.1,0.2,2.4-1.3,2.6c-1.3,0.1-1.5-1.1-1.5-2.1c-0.2-3.4-1.1-6.5-3.8-8.8C335.2,165,336.9,165.9,338.3,165.2z"/>
<path id="path148" d="M258.9,77.3c2.2-0.4-0.1-2.2,1.1-3c0.7,1.8,1.7,3.2,4,1.7c-2.6,2.3-6.3,3.6-7.4,7.3c-0.9,1.8-2.4,1.7-4,1.3
	c-0.5-0.2-0.7-0.8-0.5-1.3c0-0.1,0.1-0.1,0.1-0.2c0.8-1.2,2.1-1.9,2.2-3.9c0.1-1.7,2.7,0.1,3.7-1.1L258.9,77.3z"/>
<path id="path150" class="st34" d="M230.9,43.6c1.4,0.2,2.9,0.1,4.3-0.1c4-0.8,2.8,2.3,2.7,3.8s-2.3,0.8-2.5,0.3
	c-1-2.9-3.3-2.6-5.5-2.6c-0.8,0-1.6-0.1-1.6-1.1C228.4,42.7,229.3,43.2,230.9,43.6z"/>
<path id="path152" class="st35" d="M235.6,165.3c11.7-0.7,23.5-0.7,35.2,0c-0.7,0.5-1.6,0.7-2.5,0.6h-30.2
	C237.2,166,236.3,165.8,235.6,165.3z"/>
<path id="path154" class="st36" d="M258.6,122.2c0.1,6,0.2,12.1,0.2,18.1c0,0.9,0.6,2.5-1.4,2.2c2-7.2-1.2-14.5,0.3-21.7
	L258.6,122.2z"/>
<path id="path156" class="st37" d="M193.6,184.6c0.6-5.5-0.7-11.1,0.9-16.5c0.8,5.5,1.4,11-0.1,16.5
	C194.1,184.9,193.8,184.9,193.6,184.6z"/>
<path id="path158" class="st38" d="M193.6,192c-0.1-0.2,0-0.5,0.1-0.7c1.3,2.6,0.5,5.3,0.6,8c0.2,4.7,0,4.7,5,4.7h2.6
	c0.8-0.3,0.9,0.1,0.8,0.7c-0.9,0.1-1.7,0.2-2.6,0.2c-7.6-0.1-7.6-0.1-6.8-7.8C193.4,195.5,192.8,193.7,193.6,192z"/>
<path id="path160" class="st5" d="M258.1,78.1c-3.3,0.7-3.6,4.4-6,6c-0.8,0.3-1.2-0.1-1.5-0.8c0.7-1.2,3-1.8,2.4-3.3
	s-2.8-1.2-4.4-1.2h-4.1C249,77.9,253.5,78.1,258.1,78.1z"/>
<path id="path162" class="st39" d="M202.6,204.8l-0.8-0.7c2.6-1.5,5.4-0.7,8-0.6c4.6,0,9.2-0.7,13.7,0.7c0.2,0.2,0.3,0.3,0.2,0.5
	c-0.1,0.2-0.2,0.3-0.2,0.2h-4.5l0,0c-4.8-0.5-9.7-0.5-14.6,0L202.6,204.8z"/>
<path id="path164" class="st40" d="M252.8,38.3h-3c-2-1.4-4.3-0.8-6.4-0.5c-3.5,0.5-7.1,0.6-10.7,0.4c-1.8-0.1-0.5-0.6,0.1-0.8
	l1.1,0.1c1.7-0.7,3.6,0,5.3-0.5c4.6-0.4,9.1-1,13.6,0.7c0.2,0.1,0.3,0.3,0.2,0.4C253,38.2,252.9,38.3,252.8,38.3z"/>
<path id="path166" class="st41" d="M265.6,204.7c1.9-1.2,4-0.3,6-0.6c5.5-0.7,11-0.9,16.5-0.7c0,0.3,0,0.6,0,0.9
	C280.6,203.9,273.1,205.4,265.6,204.7z"/>
<path id="path168" class="st42" d="M237.8,105.2l3.5-0.2c2.7-0.4,5.3-0.4,8-0.1c1.7,0.4,3.3,1.1,5.1,0.3c1.8-1,3-0.4,4,1.2
	C251.5,106.8,244.7,105.9,237.8,105.2z"/>
<path id="path170" class="st43" d="M194.3,156.4c-0.3-3.7,0.4-7.2,0.9-10.8c1.7,3.2-0.2,6.3-0.2,9.5c0,3.6,0.7,7.2-0.6,10.7
	l-0.2-1.1C193.8,162,193.8,159.2,194.3,156.4z"/>
<path id="path172" class="st44" d="M200.3,148.8c-0.7-3.4-1.1-6.7,0.1-10.1C201.2,142.1,201.2,145.5,200.3,148.8z"/>
<path id="path174" class="st20" d="M309.8,165.2c0.5-0.8,1.4-1.1,2.3-0.8c4.5,1.3,9.1,0.4,13.6,0.8
	C320.4,166.3,315.1,165.5,309.8,165.2z"/>
<path id="path176" class="st45" d="M232.9,76.7c-2.2,1.2-5.7-0.8-7,1.6c-1,2-0.2,4.8-0.2,7.3c-0.2,0.3-0.4,0.3-0.7,0
	c0-0.5,0-1,0-1.5C225.2,75.7,223.5,76,232.9,76.7z"/>
<path id="path178" class="st46" d="M244.7,138.8c0.6-0.3,0.9-0.6,1.1-0.6c1.4,0,3-0.6,4.2,0.4c0.4,0.3,0.1,1-0.4,1.2
	C247.9,140.8,246.3,140.4,244.7,138.8z"/>
<path id="path180" class="st47" d="M224.9,93.1c1.7,3.5,1.1,7.1,0.3,10.7L224.9,93.1z"/>
<path id="path182" class="st48" d="M194.3,132.8h0.7c0,3.2,1.8,6.4,0.2,9.7C194.9,139.3,194.1,136.1,194.3,132.8z"/>
<path id="path184" class="st25" d="M259.6,109.6c0.9,3.8,1.6,7.6-0.8,11.2C259.9,117.1,259.4,113.3,259.6,109.6z"/>
<path id="path186" class="st49" d="M223.6,204.8c0-0.2,0-0.5,0-0.7h7.5c0,0.2,0,0.5,0,0.7C228.6,205.8,226.1,205.3,223.6,204.8z"/>
<path id="path188" class="st50" d="M338.3,165.2c-1.4,1.1-3,0.4-4.5,0.6c-2.2-0.3-4.6,0.6-6.7-0.6
	C330.8,164.5,334.6,165.1,338.3,165.2z"/>
<path id="path190" class="st25" d="M258.4,106.4c-0.9-1.8-2.8-0.5-4-1.2c2-1.2,3.9-1.8,5.1,0.9L258.4,106.4z"/>
<path id="path192" class="st51" d="M193.6,184.6h0.7c-0.2,1.5,0.6,3.2-0.7,4.5C192.3,187.6,193.2,186.1,193.6,184.6z"/>
<path id="path194" class="st52" d="M224.4,165.1l1-0.1l5,0.3C228.3,165.9,226.3,167.1,224.4,165.1z"/>
<path id="path196" class="st20" d="M297.6,164.4c1.9-0.1,3.8-1.1,5.5,0.6C301.2,165.3,299.3,165.1,297.6,164.4z"/>
<path id="path198" class="st53" d="M225.1,85.6h0.7c0,1.8,0.9,3.7-0.6,5.4C225.1,89.2,225.1,87.4,225.1,85.6z"/>
<path id="path200" class="st34" d="M242.2,44.5c-0.3,0.2-0.6,0.3-1,0.4c-0.6,0-0.9-0.4-0.6-0.9c0.2-0.2,0.6-0.3,0.9-0.3
	C241.7,43.8,241.9,44.2,242.2,44.5z"/>
<path id="path202" class="st54" d="M342.6,195c-0.7-0.8-0.4-1.5-0.3-2.4C343.1,193.5,342.6,194.3,342.6,195z"/>
<path id="path204" class="st55" d="M267.1,48.1C266,37.9,266,37.9,276,37.8c6.6-0.1,13.2-0.2,19.8-0.2c1.4,0,3-0.5,4.2,0.8
	c0.7,2.6-1.4,2.1-2.6,2.2c-5.6,0.8-11.3,1.1-17,1c-2.4,0-4.7-0.7-5.8,2.7c-0.6,1.9-3.2,1.9-5.3,1.5C266.8,44.8,268.5,48,267.1,48.1z
	"/>
<path id="path206" class="st55" d="M300.8,41.3c0.6,1.3,0.9,2.8,0.8,4.3c-0.2,0.7,0.2,2.3-1,1.9c-6.7-2.2-13.5-0.4-20.2-1
	c-1.5-0.1-3,0.1-4.3-0.8c-1.1-3.4-0.8-3.9,2.6-4.5h9.4C292.4,41.5,296.6,40.3,300.8,41.3z"/>
<path id="path208" class="st56" d="M279.1,42.1c-3.2-0.5-3.1,1.6-3,3.8c-4,0.7-3.5,4.8-5.5,7.6c-0.9-2.8-0.2-5.4-1.3-7.6
	c0.7-1,1.8-0.6,2.7-0.8s2.4-0.6,2.4-1.4c-0.3-5.1,3.5-2.3,5.4-3C280.3,41.5,279.5,41.7,279.1,42.1z"/>
<path id="path210" class="st57" d="M267.7,81.9c-1.1-2.7-2-4.8,0-7.1C269.1,77,268.8,79.1,267.7,81.9z"/>
<path id="path212" class="st57" d="M266.3,84.8c0-0.1,0.1-0.2,0.2-0.3c0.5-0.7,1.1-1.2,1.7-0.2c1,1.7,0.2,3.4-0.5,4.9
	c-0.3,0.7-0.8-0.5-1.3-0.6C265.8,87.4,265.8,86,266.3,84.8z"/>
<path id="path214" class="st20" d="M322.6,162.9h-11.9c-0.1,0-0.2-0.2-0.2-0.2c0.1-0.2,0.1-0.4,0.2-0.6
	C314.6,162.5,318.7,161.3,322.6,162.9z"/>
<path id="path216" class="st58" d="M298.7,114.9c-0.4,2.8,0.5,5.6-0.8,8.3c0-3.5-0.1-6.9-0.1-10.4c0-0.6-0.1-1.4,0.8-1.3
	c0.6,0,0.6,0.7,0.6,1.2C298.6,113.3,299.3,114.3,298.7,114.9z"/>
<path id="path218" class="st59" d="M296.6,156.3c0.2,0.4,0.4,0.6,0.4,0.8c0,1.5-0.4,3.1-1.3,4.3c0,0.1-0.6-0.3-0.9-0.4
	C296.1,159.8,294,157.4,296.6,156.3z"/>
<path id="path220" class="st60" d="M311.4,45.8c-0.2-2.3-1-4.5-0.2-6.8C312.6,41.2,312.4,43.5,311.4,45.8z"/>
<path id="path222" class="st61" d="M303.8,130.6V127C304.6,128.2,305,129.5,303.8,130.6L303.8,130.6z"/>
<path id="path224" class="st20" d="M328.6,162.9c-1.3,1-3.2,1-4.5,0H328.6z"/>
<path id="path226" class="st20" d="M335.6,162.8h-4.2C332.8,161.6,334.2,162.1,335.6,162.8z"/>
<path id="path228" class="st62" d="M266.3,84.8c0,1.3,0,2.5,0,3.8h-0.8c-0.2-0.1-0.2-0.4-0.1-0.6C265.7,86.9,265.2,85.7,266.3,84.8z
	"/>
<path id="path230" class="st63" d="M298.7,114.9c-0.1-0.8-0.4-1.7,0.5-2.2l0.7,2.9L298.7,114.9z"/>
<path id="path232" class="st1" d="M231.7,349.5c-7,2.2-14.1-0.2-21.1,0.1c-5.9,0.2-6,0.1-5.9-5.8c0.1-3-0.6-4.5-3.8-3.9
	c-0.1,0-0.2,0-0.4,0c-6.6-0.2-6.5-0.2-6.8,6.2c-0.1,1.4,0.4,3.2-2,3.2c-8.6,0-17.1,1.4-25.7,0.2l3.5-27c0.9-1.4-0.1-3.2,0.7-4.6
	c-0.1-0.2-0.1-0.4,0.1-0.6c1-0.9-0.1-2.2,0.7-3.2c1.1-9.9,2.3-19.8,3.4-29.7c0.7-5.6,0.5-11.2,1.9-16.7c0.9-1.8-0.1-3.8,0.7-5.5
	l0.1-1.2c1-2-0.1-4.2,0.7-6.2c-0.1-0.2-0.1-0.4,0.1-0.6c1.1-1.2-0.1-2.8,0.7-4.1c0-0.6,0-1.2,0.1-1.9c0.6-5.1,0.6-4.9,5.6-5.2
	c12.2-0.8,24.2,1.7,36.4,0.8l2.4,22.9c0,4.4,0.5,8.7,1.5,13l0.1,0.2l-0.1,0.2c0.9,2-0.5,4.3,0.8,6.3v-0.1c0.9,1.9-0.4,4.2,0.8,6.1
	c1.2,5.2,1.8,10.5,1.8,15.8c0.2,8.4,1.9,16.5,3.4,24.7C232.6,338.5,234.1,343.9,231.7,349.5z"/>
<path id="path234" class="st64" d="M120.1,72.9c1.5,1.9,3,1.4,4.5,0c1.3,1.7,3.3,1.8,5.1,1.7c11.2-0.2,22.4,0.5,33.6,0.1
	c3.6,0.3,7.4-1,10.8,1.1c2.6-0.1,5.5,0.9,7.5-3.5c0,3.3,0.8,4.5,3,4.3c3.8-0.4,4.6,1.9,4.5,5.1c-0.3,7.9-0.6,15.8-0.7,23.7
	c0,2.9-0.5,4.5-4,3.5c-2.1-0.5-4.3-0.2-6.2,0.7c-5.8,2.5-11.2-2-16.9-0.8c-5.6,0.4-7.1,3.4-5.3,8.5c0.2,0.7-0.1,1.5-0.7,2
	c-2.9,1.6-1.1,4.3-1.4,6.5c-0.3,2.2,1.8,1.7,2.9,2c1.2,0.3,2.4,0.4,3.6,0.4c5.8,0,11.6,0,17.3,0c0.6-0.5,1.4-0.8,2.2-0.8
	c1.7,0.8,3.1,2.1,5.4,0.8c1.7-0.9,4.3,1.7,3.9,3.8c-0.2,1.7-0.3,3.4-0.3,5.2c0.4,0.4,0.5,1,0.1,1.4c0,0-0.1,0.1-0.1,0.1
	c-2,3.2,1.4,5.9,0.8,9c0.8,1.1,0.8,2.6,0,3.8c0.1,1.7,0,3.3,0.8,5.1c0.9,2.1-0.6,3.5-2.7,3.4c-10-0.3-20-0.2-30,0.5
	c-2.4,0.1-3.7,0.6-2.7,3.3c0.2,0.7,0.2,1.5,0,2.2c-0.8,6-0.6,5.6,5.4,7.5c5,1.6,9.6,1,14.6-0.2c3.7-0.9,7.9-0.3,11.8,0.3
	c2.3,0.4,2.7,3.2,2.8,5.2c0.2,6.1,0.1,12.1,0.1,18.2c-0.1,1.7,0.1,3.5,0.5,5.2c0.5,1.8,0.8,3.7-0.8,5.2c-0.9,0.9-1.6,3.2-3.3,0.6
	c-0.2-0.4-1.2-0.3-1.8-0.3c-6.8,0.3-13.7-0.9-20.4,1.8c-2.1,0.8-4.4-1-6.8-1.2c-6.1-0.5-12.1-1.4-18.3,0.7c-2.9,1-6.4,0.2-9.7,0.2
	c-1.3,0-2.8-0.5-3.9,0.7l0,0c-5.3,0.6-7.4-1.4-7.3-6.6c0.3-15.3,0.5-30.7,0-46c-0.2-5.1-0.3-10,0.7-15.1c0.7-3.3-0.6-6.7-0.6-10
	c0.3-12.6,1.1-25.2,0.9-37.8c0-2-0.1-4-0.4-5.9C117.6,83.3,118.1,77.9,120.1,72.9z"/>
<path id="path236" d="M155.3,119.3c-0.3-2.2-0.1-4.4-1-6.4c-1.2-2.9-0.1-4.2,2.9-4.1c1.4,0,2.7,0,4,0c0.9,2,1.4,4.2,4.6,4
	c1.8-0.1,1.9,2.2,2.4,3.8c1.5,4.7-0.7,8-5.5,7.9c-2,0-4.2,0.6-6.7-0.9c2.2-0.9,4-0.4,5.7-0.5s3.4,0.4,5.8-0.8
	c-3.2-1.1-5.8-0.7-8.3-0.6C157.7,121.8,156,120.9,155.3,119.3z"/>
<path id="path238" class="st65" d="M231.7,349.5l-0.6-16.5c2.7-3.5,0.9-7.5,1.4-11.2c-0.6-6-0.6-12,0-18c0.6-1.2-1.3-2.5,0-3.8
	c1-1.6-0.1-3.5,0.7-5.2v-3.1c-0.7-1.1,0.2-2.6-0.7-3.7l0,0c-0.8-3.4-0.4-6.9-0.4-10.4c0.1-13.6,0.3-27.1-0.1-40.7
	c-0.2-8.5,0.8-17.1-0.2-25.6c0-0.8,0.3-1.5,0.7-2.1l0,0l1,0.1c1.1,1.4,0.7,3.1,0.9,4.7c0.8,11.3-0.3,22.6,0,33.9
	c0.2,9.6,0.2,19.2,0,28.8c-0.1,6.2,1.2,12.4,0.8,18.7c-1.1,15.2-0.5,30.4-0.8,45.6c-0.1,3.2,0.7,6.4,0.5,9.7
	c-0.1,0.5-0.4,0.9-0.8,1.2L231.7,349.5z"/>
<path id="path240" d="M187.5,36.1c1.2,1.3,1.8,3,1.6,4.8c-0.1,4.1,0,8.2,0,12.3c0,1.2,0.2,2.5-1.1,3.3c-1,0.7-1.6,2-0.7,2.8
	c0.6,0.6,2.1,0.6,3.1,0.5c1.8-0.1,1.2-1.5,1.1-2.5c0-0.2,0.2-0.4,0.9-1.6c0.5,2.5,1,4.3-0.2,5.6c-1,1.1-3,2.2-4.4,1.6
	c-1.9-0.7-3-2.7-2.5-4.7c1-5.9,0.7-12,0.7-18C186.1,38.8,185.6,37,187.5,36.1z"/>
<path id="path242" class="st4" d="M232.6,209.3c0,26.2,0,52.5,0,78.8c-1.8-3.3-1-6.9-0.9-10.2c0.4-14.6,0-29.2,0.2-43.8
	c-0.6-2-0.6-4,0-6c-0.9-3.1,0.3-6.3-0.2-9.4c-0.3-2.1,1.1-4.3-1-6.5C229.4,210.9,231.4,210,232.6,209.3z"/>
<path id="path244" d="M174.1,75.8h-11.2c-1-0.7-2.1-1.4-1.5-3h15C176.6,74.6,173.9,74.1,174.1,75.8z"/>
<path id="path246" d="M180.2,126.1c-1.3-1.4-2.9-2.4-4.7-3c-0.9-0.4-1.8-0.9-1.2-1.8c1.9-2.8,4.3-0.6,6.4-0.3
	c1.8,0.3,1.4,1.6,0.5,2.8C180.9,124.6,180.5,125.3,180.2,126.1z"/>
<path id="path248" d="M191.9,114.3c1.3,2.3,0.7,4.5,1,7.1c-2.6-1.8-5.2-1.6-8.3-2.6C188,118.2,192.5,120.1,191.9,114.3z"/>
<path id="path250" class="st10" d="M232.6,303.8c0,6,0,12,0,18c-1.4-1.8-0.5-3.8-0.7-5.8c-0.3-3.7,0.5-7.5-0.7-11.1
	C230.8,303.8,231.4,303.3,232.6,303.8z"/>
<path id="path252" d="M155.3,32.3h-11.2c0.5-1.7,2.3-2.7,4-2.1c0.1,0,0.3,0.1,0.4,0.1C150.7,31.6,153.3,31,155.3,32.3z"/>
<path id="path254" d="M169.6,32.3c0-0.1,0-0.2,0-0.4c0.1-2.1,1.1-3.3,3.2-3.3c0.7,0,1.3,0.5,1.1,1.2c-0.4,1.9-1.8,2.6-3.6,2.5
	C170.1,32.7,169.8,32.7,169.6,32.3z"/>
<path id="path256" class="st66" d="M224.4,279.9c-2.2-4.1-2-8.5-1.5-13C223.8,271.1,224.3,275.5,224.4,279.9z"/>
<path id="path258" class="st10" d="M204.6,204.8c4.8-0.9,9.8-0.9,14.6,0H204.6z"/>
<path id="path260" d="M175.1,115.9c1.8-0.4,3.2-0.6,3.9,0.9c0.2,0.6-0.1,1.2-0.7,1.4c0,0-0.1,0-0.1,0
	C176.2,119,176.2,117.1,175.1,115.9z"/>
<path id="path262" class="st67" d="M228.8,207.1c1.2,0.4,2.9-1.4,3.8,0.8v0.8c-1.4,0.1-2.7,0-4.1-0.3
	C227.4,207.9,227.8,207.3,228.8,207.1z"/>
<path id="path264" class="st68" d="M183.1,73.7c1.9,0.1,3.2-0.8,4.2,0.7c0.1,0.2-0.4,0.9-0.7,1.1C185.1,76.2,184.4,75.2,183.1,73.7z
	"/>
<path id="path266" class="st69" d="M225.8,213.1c-1.2-0.7-2.2-1.5-2.2-3C224.8,210.7,229.1,209,225.8,213.1z"/>
<path id="path268" d="M189.8,151.6v-3.8c1.9,1.1,1.2-1.2,2.1-1.6C192.3,148.5,191.8,150.3,189.8,151.6z"/>
<path id="path270" class="st6" d="M183.8,56.3c-1.2-2.6-1.2-5.6,0-8.2C183.8,50.8,183.8,53.6,183.8,56.3z"/>
<path id="path272" class="st6" d="M169.6,32.3h0.8c0,0.2,0,0.5,0,0.7c-2.7-0.4-5.6,0.8-8.3-0.7H169.6z"/>
<path id="path274" d="M189.1,138.8c0-0.5,0-1,0-1.5c0.9-0.3,0.4-1.8,1.5-1.8c0.2,0,0.6,0.5,0.6,0.8
	C191.5,137.9,190.1,138.3,189.1,138.8z"/>
<path id="path276" class="st0" d="M194.3,156.4c0,2.8,0,5.5,0,8.2C193.6,162,193.6,159.2,194.3,156.4z"/>
<path id="path278" d="M187.1,69.5c-0.3,0.3-0.7,0.5-1.1,0.7c-1,0.2-1.2-0.6-1.4-1.3c-0.1-0.4,0.2-0.8,0.6-0.7
	C186.1,68.2,186.8,68.7,187.1,69.5z"/>
<path id="path280" class="st70" d="M191,73.4c-0.3,0.3-0.6,0.5-1,0.6c-0.6,0.1-0.8-0.5-0.7-1s0.5-0.8,1-0.8S191,72.6,191,73.4z"/>
<path id="path282" class="st10" d="M231.8,228.1c0,2,0,4,0,6C230.7,232.3,230.7,229.9,231.8,228.1z"/>
<path id="path284" class="st66" d="M225.2,286.6c-1.7-1.9-0.6-4.2-0.8-6.3C225.3,282.3,225.2,284.4,225.2,286.6z"/>
<path id="path286" class="st66" d="M225.9,292.6c-1.7-1.8-0.6-4-0.8-6.1C226.1,288.4,225.8,290.5,225.9,292.6z"/>
<path id="path288" d="M174.6,124.5c0.4,0.3,1,0.6,1,0.9c0.1,0.8-0.6,0.6-1,0.6s-1.1-0.1-1-0.8C173.8,125,174.2,124.8,174.6,124.5z"
	/>
<path id="path290" class="st10" d="M233.2,294.9c-0.2,1.7,0.7,3.6-0.7,5.2C232.8,298.3,231.9,296.5,233.2,294.9z"/>
<path id="path292" class="st0" d="M193.6,192c-0.1,1.7,0.4,3.5-0.4,5.2C193,195.4,192.7,193.7,193.6,192z"/>
<path id="path294" d="M217.1,33.6c0.5-1.1,1.7-1.6,2.8-1.1c0,0,0,0,0.1,0C219.2,33.3,218.4,33.5,217.1,33.6z"/>
<path id="path296" d="M180.1,127.6c-0.5,0.9-1.4,0.7-2.2,0.8c0.5-1,1.3-1.8,2.2-2.2V127.6z"/>
<path id="path298" class="st10" d="M232.6,288.1c1.1,1.1,0.6,2.5,0.7,3.7C232.1,290.7,232.7,289.3,232.6,288.1z"/>
<path id="path300" d="M191.4,111.6c-0.6,0.4-0.9,0.6-1.2,0.7s-0.5-0.2-0.8-0.4c0.2-0.2,0.4-0.6,0.6-0.7S190.6,111.3,191.4,111.6z"/>
<path id="path302" d="M182.8,119.8c-0.6,0.1-0.9-0.1-0.8-0.5c0.1-0.2,0.5-0.5,0.8-0.6c0.1,0,0.4,0.2,0.6,0.3L182.8,119.8z"/>
<path id="path304" class="st6" d="M177.1,33.8c-1.3-0.1-2.7,0.5-3.8-0.7C174.6,33.3,176,32.6,177.1,33.8z"/>
<path id="path306" class="st71" d="M165.1,240.8l-0.5,2.2c-1.6,2.1-0.2,4.4-0.2,6.5c-0.1,11.2-0.1,22.3,0,33.5
	c-1.4,13.7,0.2,27.3,0,41c-0.1,7.2,0.3,14.5,0.4,21.7c0.1,2.6-0.8,3.3-3.8,3.7c-6.1,0.9-12.2,0.6-18.2,1c-2,0.1-3.1-0.3-3-2.5
	c0.5-14.4-1.6-28.7-0.5-43c0.3,0,0.5,0.2,0.4,0.4c0,0,0.1,0.1,0.1,0.1c-0.5-10.4,0.6-20.7-0.1-31.1c-0.4-5.9,0.5-11.9-0.5-17.8
	c-0.4-4.9,0.6-9.9-0.5-14.8l-0.7-1c-1.3-0.3-2.6-0.5-3.8,0.5c-3,0.6-6,0.5-8.9-0.2c-0.8-2.9-0.4-5.9-0.3-8.8
	c0.2-5.8-0.6-11.6-0.3-17.4c0.8-1.8,2.3-1.1,3.6-1.1c8.7-0.1,17.4,0.1,26.2-0.1h4.7c19.4,0.2,38.9-1.2,58.3-0.7
	c5.8,0.1,5.8,0.2,6.1,6.1c0.2,3.3-1.1,6.7,0.2,10c0.2,2.7-0.1,5.5,0.1,8.2c0.2,2.4-1.1,3-3.1,3c-7.4-0.1-14.8-0.1-22.3-0.2
	c-6.2-0.1-12.5,0-18.7,0.4C175,240.5,170,239.1,165.1,240.8z"/>
<path id="path308" class="st0" d="M105.3,300.8c-0.2-8.3-1.6-16.6-0.6-24.9c-0.1-5.9,0-11.9-0.1-17.8l-0.2-13.4
	c7.2,0.1,14.4-0.1,21.6-0.8l0.2,0.5c-0.3,0.5-0.6,0.9-1,1.2c-0.1,0.3-1.2,0.4-0.6,0.7c1.1,0.5,2-0.3,2.4-1.4
	c1.4-0.1,2.4,0.2,2.3,1.9c-0.1,1.9,0,3.9,0,5.8c0,2.8,0,5.5,0,8.1c0.2-0.9-0.4-2.1,0.5-3c1.2,5.9,0.4,11.8,0.4,17.8
	c-0.1,6.9-0.4,13.9,0,20.8c-0.2,7.1-0.1,14.2-0.2,21.3c-2.4,9.5-0.9,19-0.5,28.6c0.1,1,0.1,2,0.1,3c-0.1,0.9-0.9,1.5-1.8,1.4
	c-0.8-0.4-1.7-0.5-2.5-0.3c-5.2,0.9-10.3,0.2-15.5,0.4c-2.4,0.1-3.4-1.2-3.3-3.4c0.1-2.9-0.2-5.7-1.1-8.4c-0.8-2.4-0.1-4.9-0.4-7.3
	l0.2-1.5c0.4-3.6,0.1-7.3,0.2-10.9C106.8,313,106.4,306.9,105.3,300.8z"/>
<path id="path310" class="st2" d="M120.1,72.9c0.7,1.6,0.6,3.4-0.2,4.9c-1.3,3.1-0.9,6.9-0.2,10.3c0.4,2.2,0.6,4.3,0.5,6.5
	c0.4,13.5-1.2,26.9-0.7,40.3c0.2,5.3,0.4,10.3-1.3,15.4c-0.7,2,1.3,3.9,1.2,6.3c-0.7,10.5,0.4,21.1-0.4,31.6
	c-0.4,5.4,0.4,10.9-0.1,16.3c-0.2,2.1,0.7,4.7,3.9,4.8c0.9,0.1,1.7,0.4,2.5,0.7c-0.8,1.8-2.6,2.9-4.5,3l-3-2.3
	c-0.3-0.1-0.2-0.7-0.6-0.6c0.1,0.2,0.1,0.4-0.1,0.6c-1.8,1.5-3.5-0.2-5.2,0c3.5-3.4,1.8-7.9,2.1-11.8c0.6-8.3,0.2-16.6,0.2-25
	c1-1.4-0.2-3.1,0.7-4.5c-1.9-25.4-1.6-50.9-1.4-76.4c0.1-6.2,0.7-12.4,1.5-18.5C115.3,71.3,118.3,73.3,120.1,72.9z"/>
<path id="path312" d="M138.1,348.8c-3.4,0-5.1-1.4-4.5-5c0.7-4.1-0.8-7.9-1.9-11.7c-0.6-2.1,0.7-4.3-0.1-6.5c-0.1-1,0.4-2,1.4-2.4
	c1.2-0.3,1.6,0.9,2.1,1.7c0,0.8-0.1,1.7,0.8,2.2c0.9,0.9,1.7,1.9,2.2,3v2.2c-0.9,1.1-0.7,2.6,0.4,3.5c0.1,0.1,0.2,0.2,0.4,0.2
	C138.5,340.3,139.6,344.7,138.1,348.8z"/>
<path id="path314" d="M135.1,300.8c-3.9-2.8-3.9-4.5-2.4-8.6c2.2-6.5,3.4-13.1-0.8-19.5c-1.2-1.8-0.4-4.1-0.4-6.5
	c2.6,0.8,4.2,1.6,3.4,4.9c-0.4,1.8-0.8,4.6,2.6,5c1.6,3.1,0.3,6.5,0.8,9.8c-1,1.3-1.4,3-1.2,4.6c0.2,1.3-0.5,2.5-1.8,2.9
	C135.1,295.8,135.1,298.3,135.1,300.8z"/>
<path id="path316" class="st72" d="M165.1,240.8c2-1,4.2-1.5,6.4-1.4c12.7,0,25.4-0.1,38,0.1c3.7,0.1,7.4-0.2,11.1-0.1
	c2.4,0.1,3.1-0.9,3-3.1c-0.1-2.5,0-5,0-7.5c-0.5-0.7-0.5-1.7,0.1-2.3c1.3,4,0.6,8.1,0.8,12.2c0.1,1.9-1.7,1.9-3,1.9
	c-16.4,0-32.8-0.1-49.2-0.1C169.8,240.6,167.5,240.7,165.1,240.8z"/>
<path id="path318" class="st73" d="M223.7,226.5l-0.1,2.3c-1.6-3.7-0.6-7.6-0.6-11.4c0-3.2-0.9-4.4-4.3-4.4
	c-10.4,0.2-20.8-0.4-31.1,0.2c-8.2,0.5-16.4,0.4-24.7,0.5c-1.2,0-2.5,0.3-3.6-0.4c19-0.9,37.9-1.5,56.9-1.2c8,0.1,8,0,8,8
	C224.2,222.3,223.8,224.4,223.7,226.5z"/>
<path id="path320" class="st74" d="M139.6,256.6c0.9,0.8,0.7,1.8,0.7,2.8c0,16,0,32,0,48c-0.1,0.6-0.2,1.2-0.3,1.8l-0.7-4.3
	c-1.1-4.5,0.2-8.9,0.2-13.3c0.1-9.8-0.6-19.6,0-29.4C139,260.3,139,258.4,139.6,256.6z"/>
<path id="path322" class="st75" d="M164.4,282.9c-1-1.5-0.8-3.1-0.8-4.7c0-9.8,0-19.6,0-29.4c0-1.7-0.4-3.4-0.4-5.1
	c0-0.2-0.2-3.1,1.5-0.7c0,4.1,1,8.2,0,12.3c0.1,5.9,0.1,11.8,0,17.7C165,276.3,165.4,279.6,164.4,282.9z"/>
<path id="path324" class="st76" d="M125.3,214.6c0,8.8,0,17.5,0,26.3c-0.8-0.4-0.8-1.2-0.8-1.9c-0.1-8.3-0.3-16.7-0.4-25
	C124.6,213.8,125.1,214.1,125.3,214.6z"/>
<path id="path326" class="st77" d="M125.3,214.6l-1.2-0.7c0-0.5,0.4-0.9,0.9-0.9c0,0,0.1,0,0.1,0c9.8,0.2,19.6-0.5,29.4,0.3
	c-7.6,1.1-15.1,0.2-22.7,0.5C129.6,214,127.3,213.1,125.3,214.6z"/>
<path id="path328" class="st2" d="M135.1,293.3c0.4-1,1.4-1.6,0.9-3c-0.6-2,0.2-3.6,2.1-4.5c0,4.3,0.4,8.6-1.1,13
	C136.3,296.9,137,294.6,135.1,293.3z"/>
<path id="path330" d="M156.1,352.6c-4.2,3.2-8.1,1.1-12-0.8C148.1,352.2,152.2,351,156.1,352.6z"/>
<path id="path332" class="st2" d="M120.8,222.8c0-2.8,0-5.5,0-8.2c2.6,3.1,3.1,11.4,0.8,13.5C120.5,226.5,122.5,224.4,120.8,222.8z"
	/>
<path id="path334" class="st78" d="M139.6,256.6l-0.1,5.6c-1.3-6.8-0.7-13.7-0.7-20.5c1.8,3,0.5,6.2,0.8,9.4
	C139.6,252.9,139.7,254.7,139.6,256.6z"/>
<path id="path336" class="st71" d="M164.6,272.9c-0.5-5.9-0.5-11.8,0-17.7C165,261.1,165,267.1,164.6,272.9z"/>
<path id="path338" class="st2" d="M138.8,336.1c-1.2,0.3-2.4-0.4-2.7-1.6c0-0.1,0-0.1,0-0.2c-0.3-1.5,0.8-1.8,1.9-2
	C139.3,333.4,138.6,334.8,138.8,336.1z"/>
<path id="path340" class="st2" d="M136.6,303.1c2,2,2,4,0,6C136,307.1,136,305,136.6,303.1z"/>
<path id="path342" class="st2" d="M138.1,330.1c-1.2-0.7-2.2-1.5-2.2-3C137.8,327.2,138.1,328.5,138.1,330.1z"/>
<path id="path344" class="st2" d="M205.6,242.8c2-0.5,4-0.6,6-0.1C209.6,243.2,207.6,243.2,205.6,242.8z"/>
<path id="path346" class="st79" d="M177.8,254.9c-0.2,2.1,0.8,4.3-0.7,6.2C177,259,176.8,256.9,177.8,254.9z"/>
<path id="path348" class="st80" d="M134.3,241.1c1-1.9,2.4-1.1,3.8-0.5L134.3,241.1z"/>
<path id="path350" class="st79" d="M177,262.3c-0.1,1.9,0.8,3.8-0.7,5.5C176.2,266,176.4,264.1,177,262.3z"/>
<path id="path352" class="st79" d="M178.5,250.3c-0.4,1.3,1.5,3-0.7,4.1C177.6,253,177.9,251.5,178.5,250.3z"/>
<path id="path354" class="st81" d="M171,314.2c0.2,0.8,0.3,1.6,0.5,2.5c0.4,1.5-0.5,0.9-1.1,0.7C170.2,316.3,170.4,315.1,171,314.2z
	"/>
<path id="path356" class="st81" d="M170.3,318c-0.1,1.5,0.6,3.2-0.7,4.6C169.6,321,169.4,319.4,170.3,318z"/>
<path id="path358" class="st2" d="M217,242.8c-1,0.5-2.3,0.5-3.3-0.1C214.7,242.2,216,242.2,217,242.8z"/>
<path id="path360" class="st82" d="M129.1,349.6c-1.4-4.8-0.6-9.9-1.3-14.8c-0.9-5.7-0.2-11.5,2.1-16.7c0.9,3.2-0.1,6.5,0.6,9.7
	c0,7.3,0.1,14.7,0.1,22c0.1,0.5-0.2,1-0.6,1.2C129.2,350.7,129.5,350,129.1,349.6z"/>
<path id="path362" class="st82" d="M105.8,339.1c2.4,2.3,1.7,5.4,1.7,8c0,2.4,0.6,3.3,2.7,3.2c5.4-0.4,11,1.3,16.2-1.7
	c1.2-0.7,0.8,1,1.1,1.7c-0.1,0.3-0.4,0.5-0.8,0.6c-6.2,0.8-12.5,0.3-18.7,0.2c-2.4,0-3.6-0.6-2.9-3.2c0.7-2.7,0.1-5.5,0-8.2
	C105.3,339.5,105.5,339.2,105.8,339.1z"/>
<path id="path364" d="M134.9,263.1c-6.5-1.6-2.1-6.3-3.2-9.6c-0.2-0.5-0.1-1,0.5-1.2c0.5-0.1,1.1,0.2,1.2,0.7c0,0.1,0,0.2,0,0.3
	c0,2.4,0.1,4.5,2.4,6.3C137,260.3,135.1,262.1,134.9,263.1z"/>
<path id="path366" class="st83" d="M130.4,327.8c-1.2-3.2-0.2-6.5-0.6-9.7c0-6,0-12.1,0-18.1c0-1.2-0.4-2.5,0.5-3.6
	c1.6,4.6,0,9.3,0.2,14C130.8,316.2,130.5,322,130.4,327.8z"/>
<path id="path368" class="st84" d="M105.3,300.8c0.2,0.1,0.6,0.2,0.6,0.3c0.8,5.9,1.3,11.8-0.1,17.7c-0.3,0.3-0.5,0.4-0.8,0
	c1.3-4.1,0.2-8.3,0.7-12.4c-0.6-1.5-0.1-3.2-0.4-4.8L105.3,300.8z"/>
<path id="path370" class="st85" d="M104.7,258.2c0.6,5.9,0.7,11.9,0.1,17.8C104.1,270,104,264.1,104.7,258.2z"/>
<path id="path372" class="st86" d="M105.8,339.1l-0.7,0.7c-1-2.7-1-5.6-0.1-8.2C106.6,333.9,105.4,336.6,105.8,339.1z"/>
<path id="path374" class="st12" d="M120.1,240.1c0.4-4-0.8-8.1,0.8-12C120.4,232.1,121.7,236.2,120.1,240.1z"/>
<path id="path376" class="st87" d="M125.3,245.3l0.9-0.9c2.8-0.4,4.3,0.3,3.7,3.5c-0.2,1.6-0.3,3.2-0.3,4.8h-0.5
	c0-1.6-0.2-3.2,0-4.7c0.2-2.3-0.9-3-3-2.8c-0.1,0.2-0.4,0.3-0.7,0.1C125.4,245.5,125.4,245.4,125.3,245.3z"/>
<path id="path378" class="st88" d="M105.1,318.8h0.8c-0.3,3.7,0.6,7.5-0.6,11.2C104.8,326.3,104.7,322.6,105.1,318.8z"/>
<path id="path380" class="st89" d="M129.1,252.8h0.5l0.3,5l-0.3,3.9h-0.5L129.1,252.8z"/>
<path id="path382" class="st12" d="M99.1,264.1c0.4-3-0.8-6.1,0.7-9C99.4,258.1,100.6,261.2,99.1,264.1z"/>
<path id="path384" d="M132.2,280.6c-1.3-1.4-0.9-2.6-0.7-3.8C132.7,278.1,132.7,278.1,132.2,280.6z"/>
<path id="path386" class="st12" d="M99.1,247.6c-1.2-2.1-1.2-4.6,0-6.7C98.8,243.1,100.1,245.3,99.1,247.6z"/>
<path id="path388" class="st12" d="M120.8,222.8c2.9,1.4,0.3,3.5,0.8,5.2h-0.8C120.8,226.3,120.8,224.6,120.8,222.8z"/>
<path id="path390" class="st12" d="M98.4,276.1c0.3-2.5-0.8-5.1,0.7-7.5C98.8,271.1,99.8,273.7,98.4,276.1z"/>
<path id="path392" class="st69" d="M104.9,353.1c-0.2,0.8-0.8,0.9-1.4,0.8c-0.5-0.1-1.1-0.5-0.8-1c0.4-0.5,0.9-0.8,1.5-0.9
	C104.8,352,104.9,352.6,104.9,353.1z"/>
<path id="path394" d="M136.6,303.1v6C134.6,307.1,135.8,305.1,136.6,303.1z"/>
<path id="path396" d="M132.4,281.7c0.6,1.3,0.7,2.2-0.3,3.2C131.1,283.8,131.1,282.9,132.4,281.7z"/>
<path id="path398" d="M132.2,248.6c0.7-1.4,1.5-1.1,2.8-0.5C134.3,248.8,133.2,249,132.2,248.6z"/>
<path id="path400" class="st12" d="M98.3,283.6c0-1.5,0-3,0-4.5C99.4,280.4,99.4,282.3,98.3,283.6z"/>
<path id="path402" class="st0" d="M105.3,301.7c0.9,1.5,0.3,3.2,0.4,4.8C105.3,304.9,105.1,303.3,105.3,301.7z"/>
<path id="path404" d="M133.4,306c-0.1,0.6-0.3,1.1-0.9,1c-0.2,0-0.4-0.6-0.4-0.9s-0.1-1.1,0.7-0.9
	C133.1,305.3,133.2,305.7,133.4,306z"/>
<path id="path406" class="st90" d="M126.8,350.9l0.8-0.6c0.6,0.1,1.2-0.2,1.5-0.7c0.5,0.3,0.8,0.8,0.8,1.4L126.8,350.9z"/>
<path id="path408" class="st65" d="M260.3,351.7c-1,1.5-2.5,0.9-3.8,0.9c-7.5,0-14.9,0-22.4,0c0-0.2,0-0.4-0.1-0.6l0.3-0.4
	c0.4-0.3,0.8-0.6,1.3-0.6c7.7-0.1,15.3-0.6,23,0C259.2,351.1,259.8,351.3,260.3,351.7z"/>
<path id="path410" d="M209.2,351.5c3.1-0.6,5.4-0.9,7.8,0.4c0.8,0.4,1.5,1,1.3,2c-0.1,0.5-0.4,0.9-0.8,1.1c-1,0.2-1.1-0.7-1.5-1.3
	C214.3,351.5,211.6,353.5,209.2,351.5z"/>
<path id="path412" d="M173.4,352.1c-1.8,0.7-3.8,0.6-5.6-0.2C170.2,350.8,171.8,350.8,173.4,352.1z"/>
<path id="path414" d="M241.6,354.1c1.1,0,2.2,0,2.2,1.5c-1.4,0-3,0.2-3.8-1.5H241.6z"/>
<path id="path416" d="M228.3,351.8c-0.8,0.9-2,1.3-3.2,1.2C226,351.5,227.2,352,228.3,351.8z"/>
<path id="path418" d="M227.7,352c1.5-1.1,2.3-1,3.2-0.3C229.8,352.9,229,351.5,227.7,352z"/>
<path id="path420" d="M181,352c-0.3,0.2-0.4,0.5-0.6,0.4c-0.5-0.1-0.9-0.3-1.3-0.6c-0.4-0.4,0.1-0.7,0.5-0.5
	C180.2,351.5,180.6,351.8,181,352z"/>
<path id="path422" class="st91" d="M260.3,351.7c-8.6-0.1-17.3,0.6-25.9-0.2c-1.8-8.8-0.4-17.7-0.9-26.5
	c-0.5-10.8,1.1-21.5,0.5-32.2c-1.1-19.5-0.5-38.9-0.4-58.4c0-8.4-0.3-16.7,0-25c8.7,0.2,17.4,0.4,26.1,0.5c2,0,2.4,1.1,2.9,2.7
	c1.9,6,1.5,12.4,3,18.4c2,7.9,3.2,16,4.6,24c0.7,1.1,0.5,2.6,1.4,3.7c0.1,0.4,0.6-0.2,0.1,0c-0.2,0-0.2,0-0.3-0.2
	c-0.4-0.7-0.2-1.5,0.3-2c0.5-14.5-0.5-28.9-1.2-43.3c-0.3-5.5-0.3-5.7,5.2-5.6c7,0.1,14,0.7,20.9,0.9c2,0.1,2.5,0.9,2.4,2.8
	c-0.5,35.7,0.3,71.4-0.9,107.1c-0.4,10.8,0.3,21.7,0.5,32.6c-2.7,0.3-5.4,0.2-8.1-0.1c-0.2-0.4,0-0.9,0.3-1.1c0.3-0.2,0.6-0.4,1-0.6
	c4.6-1.2,4.9-1.3,4.3-6.2c-1.5-11.2,0.1-22.5-1-33.7c-0.2-1.7,0.9-3.1,1.4-4.6c0.9-5.8,0-11.6,0.4-17.3c0.1-1.8,0-3.6,0-5.5
	c-0.2-11.3-0.1-22.6-0.3-34c-0.2-8.7,0.1-17.4,0.3-26.1c0.1-3.4-0.1-6.3-4.5-6.5c-0.9-0.2-1.6-0.7-2-1.5c-1-0.9,0.5-4-2.7-3.1
	c-3.8-0.4-7.7-0.4-11.5-0.6c-0.4,0.1-0.7,0.1-1.1,0.2c0.4,0.6,1,0.1,1.5,0.3c2.4,0.1,4.8-0.5,7.1,0.7c0.9,1.8-0.6,2.4-1.7,3.1
	c-1,0.4-2.2,0.7-3.3,0.6c-5.1,0.3-5.1,0.3-5,5.2c0,3.9,0,7.8,0,11.6c0,2.2-0.1,4.5,1.9,6.2c1,0.8,0.5,2.1,0.5,3.2
	c-0.2,3.5-1.3,6.9-1.9,10.3c-0.4,1.7-0.5,3.5-0.2,5.2c0.1,0.4-0.2,1.7,0.6,1.2c2.1-1.2,2.5,0,2.4,1.6c-0.1,2.5-0.4,5.1-3.5,5.9
	c-1.9,0.5-4,0.1-4.2-1.9c-0.3-4-3.6-7.1-2.6-11.9c0.8-3.6-1-8.1-2-12.2c-1.2-5-2.5-10.1-2.2-15.3c0-0.5,1-1.6-0.2-1.6
	c-3.6-0.2-2.7-2.7-2.5-4.6c0.5-4.3-0.3-5.8-4.4-5.6s-8-0.2-11.9-0.2c-2.5,0-3.6,1-3.6,3.5c0.1,3.4,0.1,6.8-0.1,10.1
	c-0.1,1.2-0.1,2.8-1.8,2.7c-1.4-0.1-1.5-1.6-1.5-2.6c-0.3-3.8,0-7.6-0.2-11.3c-0.1,21.6-0.1,43.2-0.1,64.8c0,2.2,0.2,4.1,3.2,3.7
	c0.9-0.1,1.4,0.4,1.6,1.2c0.4,1.6,0,3.5-1.3,4c-5.7,2.3-3.4,6.9-3.1,10.7c0.3,2.3,0.3,4.6,0,6.9c-0.6,5.3-1.3,10.7,0.7,15.9
	c0.4,0.8,0.5,1.7,0.3,2.5c-2.9,7.1-0.8,14.5-1.3,21.8c-0.1,1.4,0.5,2.1,2.1,1.5c1.2-0.4,2.5-0.5,3.7-0.3c1.2,0.1,2.9,0,3,1.6
	c0.1,2.1-1.9,1.4-2.8,1.5c3.4,0.7,6.4-1.1,9.4-2.6c1.5-0.8,1.2-2.3,1.2-3.7c0-2.1-0.7-4.2-0.7-6.3c0-0.9,0.1-1.8,1.1-2.2
	c1.2-0.4,1.9,0.4,2.4,1.2c0.5,0.9,0.8,1.9,0.8,2.9c0.1,3-0.1,6,1.2,8.8c0.3,0.7,0.4,1.5-0.2,1.5c1.2-2.3,1.3-5,0.4-7.4
	c-0.9-2.7-1.1-5.6-0.6-8.4c0.4-3.5,1.2-7.2-1.7-10.3c-0.9-1-0.2-2.1,0.4-3.1c3-5,2.9-10.2,1.4-15.6c-0.6-2.2-1-4.3,0.2-6.5
	s0.4-4.4,0.4-6.6c0-1.4-0.6-3.1,0.8-3.8c1.9-0.9,2.2,1.4,3.4,2.1c0.9-0.6,0.8-2.4,2.3-1.9c1,0.4,1.1,1.6,1,2.6
	c-0.1,1.6,0.7,3.5-1.4,4.6c-0.5,0.4-0.7,1.1-0.3,1.7c1.7,2.8,0.9,6.1,1.8,9.1c0.5,1.6,0.8,3.3-1.7,3.5l-2.4-11.2
	c-0.5-0.8-0.1-1.8-0.6-2.5c-0.1-0.1,0.1-0.8-0.4-0.4c-0.1,0.1-0.1,0.5-0.3,0.6C259.7,314.9,258.9,333.3,260.3,351.7z"/>
<path id="path424" class="st23" d="M312.1,285.1c0.9,1.5,2.2,2.8,3.7,3.8c0.4,0.4,0.5,1,0.3,1.5c-1.2,1.4-0.5,2.2,0.6,3.3
	c1.6,1.6,4.1,2.8,3.6,5.8c-4.9,0-9.8,0.1-14.8,0c-1.7-0.1-3.4,0.4-4.7,1.6c-0.6-2-0.9-4.1-0.8-6.2c0.1-7.4,0.3-14.9,0-22.3
	c-0.6-15.3,1.8-30.5,0.8-45.8c0.4-0.4,0.6-1.2,1.5-0.8c0,10.7,0.1,21.4,0,32.2c-0.2,4.1,0.3,8.2,1.5,12.1c-1.9,2.2,0.3,2.3,1.5,3
	C305.6,278.2,309,281.5,312.1,285.1z"/>
<path id="path426" class="st92" d="M302.3,225.8l-1.5,0.8c0.5-3.6-0.1-7.2,0.7-10.9c0.4-1.8,0.1-3.9,1.5-5.6c0.9-0.6,1.6-1.4,2-2.4
	c0.9-1.9,2.5-3.1,4.7-1.3c-0.7,1.2,1.1,1.3,1,2.3c-0.1,0.7-0.5,1.3-1,1.8c-1.8,0.8-3.9,1.5-3.1,4.2c0.1,2-1.1,3.9-3,4.5
	c-1.9,1.4-1.6,3.3-1.5,5.2C302.3,224.8,302.3,225.3,302.3,225.8z"/>
<path id="path428" class="st93" d="M271.6,256.6c0.3,1,0.2,2-0.2,2.9c-1.4-1.3-1.3-2.8-1.2-4.4L271.6,256.6z"/>
<path id="path430" d="M250.6,83.3l1.5,0.8c1.5,0,3.1,0.1,4.5-0.8c2,0.3,4.5,2.2,4.7-2c0-1,1.1-0.5,1.8-0.4c1.9,0.3,1.8,1.7,1.7,3.1
	c-2.7,1.3-1.5,3.3-0.8,5.1c1.1,3,1.4,6.2,0.8,9.4c-0.1,0.8-0.7,1.4-1.5,1.4c-1.2-2-3.4-2.3-5.2-3c-2.1-1-4.3-1.3-6.4,0
	c-0.2,0.1-0.5,0.4-0.6,0.3c-6.2-2.2-12.8,0.4-19-1.2c-1.2-0.3-3.4-0.8-3.4-1.1c0.2-2.4-1.7-4.8-0.8-6.8c1-2.4,1.3-4.9,2.4-8
	c0.9,2.1,2.3,2.6,3.6,3.4c1.6,0.9,2.8-0.2,4.1-0.7s-1.4-2.3,0.8-2.1c1.4,0.1,1.1,1.7,1.5,2.7s1.4,1.6,2.1,1.2
	C245,83,248,84.6,250.6,83.3z"/>
<path id="path432" d="M260.7,52.3c1.4,0.2,1.2,2.7,2.6,1.8c1.6-1-0.5-1.8-0.6-2.7c-0.4-3,1.5-6-0.4-9c-0.3-0.5,0.6-1.8,1.9-1.8
	c0.9,0,1.4,0.5,1.3,1.4c-0.3,5,1,10.1-0.6,15.2c-0.2,0.8,0.1,1.9-1.2,2c-0.9,0.1-1.7-0.5-2-1.4C261.4,56,258.9,54.6,260.7,52.3z"/>
<path id="path434" class="st1" d="M279.1,42.1l0.8-1.5c6.3,0.4,12.6-0.7,18.8-0.8c1,0,1.3-0.5,1.4-1.4c1,0.8,0.8,1.9,0.8,3
	c-4.2,1.5-8.5,0.4-12.8,0.8c-2.5-0.6-5-0.6-7.5,0H279.1z"/>
<path id="path436" d="M259.5,61.5l2.6,5.1c0.9-1.5,0.3-3,0.5-4.5c0.1-0.6-0.2-1.4,0.7-1.4s0.9,0.7,1,1.5c0.3,3-1.3,5.8-1.1,8.8
	c0,0.7-0.7,1-1.4,0.9c-0.8-0.2-1.3-0.8-1.4-1.6C259.8,67.4,259.5,64.4,259.5,61.5L259.5,61.5z"/>
<path id="path438" class="st94" d="M252.8,38.3c0-0.2,0-0.4,0-0.6c2,0.5,4.6-1.7,6.1,1.3C257,38.1,254.9,38.3,252.8,38.3z"/>
<path id="path440" class="st0" d="M239.2,37c-1.7,1.1-3.5,0.4-5.3,0.5C235.6,36.9,237.4,36.8,239.2,37z"/>
<path id="path442" d="M262.4,38.4c-0.4,0.3-0.7,0.5-1,0.5c-0.5,0-0.9-0.3-0.8-0.8c0.1-0.2,0.6-0.4,0.9-0.3S262.1,38.1,262.4,38.4z"
	/>
<path id="path444" class="st95" d="M124.7,71.5c-2.4,1.5-4.8,0.3-7.3,0c-2.7-0.3-4.6-0.3-4.8,3.6c-0.9,22.7-0.4,45.4-0.2,68.1
	c0.2,20.5-0.2,41,0.2,61.4c0.1,3.1-0.8,4.1-3.9,4.1c-6.9-0.1-13.7,0.2-20.5-1c-2.5-0.5-5-0.5-7.4,0.2c-2.4,0.8-3.3-0.4-3.3-2.6
	c-0.1-1.7,0.1-3.5,0.5-5.2c0.8-3,1.1-6.1,1-9.3c-0.1-12.2-0.8-24.5,0-36.7c0.6-10.2-1.6-20.1-1.7-30.1c-0.2-13.9,0.3-27.9-0.6-41.8
	c-0.1-2.1,0.8-3.9,1.2-5.9c0.6-2.6,0-4.4-3.3-4.2c-2.4,0-4.7-0.1-7.1-0.4c-1.4-0.1-2.8-0.1-4.2,0l-1-0.2c-1-1.3-2.2-0.5-3.4-0.5
	c-1,0-2.1,0.3-1.7-1.4c1.5-1.6,3.8-2.1,5.8-1.2c3.8,1.4,7.9,0.6,11.8,1.6c4.4,1.2,5.2,1.7,5.2,6.6c0.1,15.6-0.9,31.3,0.2,46.8
	c1.6,22.7,1,45.4,1.3,68.1c0.2,3.4-0.1,6.7-1,10c-0.5,1.7-0.3,3.6,2,3.4c7.4-0.4,14.6,2.2,22,1.7c4.8-0.4,6.1-1.2,6.1-6.1
	c0.2-15.7,1.4-31.6-0.4-47.1c-1.3-12.1,0-23.8,0.3-35.7c0-3.1-0.3-6.2-0.8-9.3c-0.9-7.7-0.6-15.5,0.7-23.2c0.4-3.6,0.4-7.2,0.2-10.8
	c-0.2-4.9,2.5-7.1,7.2-5.8c2.2,0.6,4.4,0.8,6.5,1.6C124.8,70.5,124.9,71.1,124.7,71.5z"/>
<path id="path446" class="st96" d="M57.1,70.6c1.6,0.9,3.9-2.2,5.2,0.9c-5.9,1.1-11.9-0.3-17.8,0.6c-1.7,0.2-3.5-0.1-5.1-0.8
	c-0.3-10-0.7-19.9-0.4-29.9c0.2-8.1,0.2-8.6,8.4-8c18.9,1.3,37.9,1.7,56.8,1.1c16.2-0.5,32.4-0.9,48.6-0.7
	c8.7,0.1,17.4,0.6,26.2,0.9c2.5,0.1,3.5,1,3.5,3.6c-0.1,10-0.1,20,0,29.9c0,1.6-0.3,2.9-1.8,3.8c-15.7,0-31.4,0-47.1,0.1
	c-3,0-5.9-1.3-8.9-0.5l-0.1-0.9c1.8-2.7,4.2-1,6.3-0.9c0.4,0.1,0.9,0.2,1.3,0.3c13.9,0.6,27.9,0.1,41.8,0.2c1.8,0,3.8,0.5,5.4-0.8
	l0.4-0.5c0.1-0.2,0.2-0.4,0.3-0.6c0.8-4.1,0.8-8.2,0-12.3c-0.4-2.5-0.4-5.1,0-7.7c0.8-3.4,0.8-7,0.1-10.4c-0.3-0.5-0.7-0.9-1.1-1.2
	c-1.5-0.9-3.1-0.3-4.6-0.4c-17.2,0.1-34.4-1.6-51.6-0.6c-19.8,1.2-39.6,0.3-59.5,0.6c-2.4,0.1-4.7,0-7.1-0.5
	c-4.4-0.7-8.9-0.4-13.3-0.2c-2,0.8-2.1,2.6-2.1,4.4c0.1,7.2-0.5,14.5,0.4,21.7c0,1.5-0.1,3-0.3,4.5c0,2.8,1.3,4.3,3.9,3.4
	C49.2,68.5,53.1,69.8,57.1,70.6z"/>
<path id="path448" class="st2" d="M161.3,72.9l1.5,3c-7.3-0.3-14.6,0-21.9-0.4c-4.8-0.3-9.7-0.3-14.6-0.1c-3.4,0.2-1.9-1.2-1.8-2.6
	L161.3,72.9z"/>
<path id="path450" class="st12" d="M114.8,169.6c-0.2,1.5,0.6,3.2-0.7,4.5C114.3,172.6,113.5,170.9,114.8,169.6z"/>
<path id="path452" class="st96" d="M63.2,71.7c1.3-0.7,2.9-0.7,4.2,0C66.1,72.2,64.6,72.2,63.2,71.7z"/>
<path id="path454" class="st19" d="M340.6,42.9c-2,1.7-3.1-0.8-4.8-1.1c-2.4-0.5-4.4,0.9-6.7,0.6c-0.6-0.1-1.8,0.3-1.3-0.9
	c0.1-0.4,0-1.8,1.6-1.4c3.8,1,7.6,0.2,11.4,0.5c1.2,0.1,3.3-0.8,3.3,1.2C344.1,44,342.2,43.6,340.6,42.9z"/>
<path id="path456" class="st97" d="M353.5,285.8c2.6,2.4,4.7,5.3,6.4,8.4c0.2,0.5-0.2,0,0.1,0.4c8.5,12.7,4.4,26.9,4.5,40.6
	c0,1.6-0.9,3.1-1.7,4.5c-4.7,8.3-11.7,12.4-21.4,13.2c-8.7,0.6-17.5,0.1-26.1-1.7c-0.6-0.1-1.2-0.3-1.8-0.5c-1-0.5-7.1-6.8-7.7-7.9
	c3-2.8-0.5-3.8-1.6-5.4c-1-9.1-1.9-18.3-0.6-27.5c0.2-1.7-0.7-3.1-0.6-4.7c0.1-2.4,0.9-3.5,3.4-3.3c5.7,0.5,11.4-0.8,17.1,0
	c4.2,0.5,5.5,1.1,5.1,5.4c-0.4,5,0.1,10,0,14.9c-0.3,3.3,1.5,6.5,4.5,8c1.7,0.9,3.3,1.3,4.8-0.3c1.9-2,3.5-1.4,5.1,0.3
	c0.8,0.8,1.5,1.7,3,1.2c-4-0.9-2.4-6-6.1-7.4c-1-0.4-0.4-2.6-0.3-3.9c0.2-4-0.6-7.9-2.2-11.5c-0.3-0.9-0.9-1.8-1.7-2.4
	c-2.8-2.2-5-4.7-2.5-8.5c0.3-0.6,0.3-1.3,0-1.9c-0.7,1.4-0.2,3.4-2,3.9s-2.5-1.3-3.7-2.1c-1.9-1.5-3-4-5.7-4.6l-3-3
	c-0.8-2.3-3.1-3.2-4.2-5.3c0-0.5,0,0.1-0.1-0.4c-0.2-0.9,1.1-3.3-1.7-1.9l-0.8-0.8c-3.2-3.5-4.7-7.7-5.9-12.2
	c-3-12-0.8-24.3-1.5-36.4c0-0.9-0.1-2,1.8-2.8c0.8,7.6,0.1,14.9,0.4,21.2c0-4.7,0-10.5,0-16.2c0-2.4,0.4-4.9-1.6-7.1
	c-0.7-0.8-1-2.6-0.2-3.1c1.9-1.2,1-2.9,1.3-4.4c0.2-1.9,1.6-3.1,2.6-4.5l0,0c0.9-0.8,1.5-1.9,2.8-2.2c7.2-5.6,15.8-4.5,24-4.8
	c6.7-0.2,13.4,0.6,19.3,4.4c5,3.2,8.3,7.1,8.3,13.9c0,4.1,0.8,8.3,0.8,12.5c0,5.2,0.2,10.5-0.8,15.6c-0.8,4.1,0.3,8.2-0.2,12.3
	c-0.3,2.8-1.2,3.8-3.9,3.4c-1.2-0.1-2.5-0.1-3.7,0c-3,0.5-5.9-1.4-8.7-0.6c-1.6,0.5-3.4,0.3-4.9-0.4c-1.9-0.8-2.4-2-2.6-4
	c-0.5-5.5-0.3-10.9-0.3-16.4c0.1-4.2-0.3-8.5-1.2-12.6c0.9-1.8,1.8-1.4,2.5,0.1s1,2.5,2.8,2.3s2.4-1.4,2.6-3.1
	c0.1-1.1,0.9-2,1.1-3.9c-1.5,1.2-1.8,2.6-2.4,3.9c-0.4,0.9-0.9,1.8-2.1,1.8s-1.5-1-2-1.9c-0.5-1.5-1.2-2.9-2-4.2
	c-0.1,1.6,0.6,2.7,0.1,3.8c-2.1,0.7-4.1-2.3-6.3-0.4c-0.9,0.8-1.5,2-1.6,3.3c0.1,8.4-1.3,16.9,1.6,25.1c4.2,5.5,9.6,9.9,14.4,15
	C348.9,281.2,351.3,283.4,353.5,285.8z"/>
<path id="path458" class="st98" d="M355.6,270.9c7.4-0.1,7.9-0.8,6.8-8.1c-0.6-4.2,0-8.1,1.1-12.3c1-4,0.5-8.4,0.3-12.6
	c-0.1-2.9,1.4-6.2-2-8.5c-0.7-0.4-0.3-1.9,0.2-2.8c1.6-2.9,0.3-5.2-1.6-7.4c-4.2-5-9.7-7.1-16.1-8.7c-8.9-2.2-17.4,0.2-26,0.3
	c-1,0-2,0.5-2.5,1.3c-1,1.7-2.7,2.1-4.4,2.4c-0.5-0.8,0.5-1.1,0.6-1.8c1.4-1.4,3.2-2.4,5.1-2.8c9.5-2.1,19.4-2.3,29-0.6
	c10.6,1.8,19,7.8,18.6,22.2c-0.3,12.2,0,24.4-0.5,36.7c-0.1,2.8-1,3.8-3.7,3.5c-1.6-0.2-3.2-0.2-4.8-0.3L355.6,270.9z"/>
<path id="path460" class="st99" d="M306.8,219.9c0.6,0.6-1.3,3,1.5,2c0.5-0.2,0.7,0.2,0.7,0.6c0,1.1-0.9,2.2-1.7,2.2
	c-3.3,0-1.6,2.9-1.2,3.1c2.2,1,1.5,2.7,1.5,4.2c0.1,6.9,0.1,13.7,0,20.6c0,1.2,0.4,2.5-1.1,4.3v-25.5h-1.1c0,2.5,0,5,0,7.4
	c0,7.7,0,15.5,0,23.2c0,1.7-0.8,3.9,1.7,4.8c0.2,0.1,0.4,0.6,0.4,1c-0.7,5.8,2.4,10.1,5.4,14.4c-0.2,0.3-0.6,0.4-0.9,0.2
	c0,0,0,0-0.1-0.1c-5.9-5.9-7.6-13.4-8-21.2c-0.5-11-0.2-22-0.2-33c0.1-2.9,0.9-5.7,2.4-8.2C306.3,219.5,306.6,219.5,306.8,219.9z"/>
<path id="path462" class="st100" d="M336.1,265.6c-2.7-2.2-4.1-5.6-3.8-9c-0.8-3.9-0.1-7.8-0.4-11.8c-0.1-1.3,0.4-2.7-0.4-4
	c0-2,0.7-3.7,2.8-3.6s2.5,2.1,2.4,4c0,3.6,0,7.2,0,10.8c0.8,4.2,0.2,8.5,0.3,12.8C337.1,265.4,336.6,265.7,336.1,265.6z"/>
<path id="path464" class="st101" d="M355.6,270.9c0,0.2,0,0.3,0,0.5c-3.6,0.1-7.2,0.2-10.8,0.1c-4.2-0.1-5.8-1.7-5.9-5.8
	c-0.3-7.8-0.4-15.7-0.7-23.5c-0.2-5.3-1.3-6.5-5.9-6.5c2.3-2.5,4.1-0.3,6,0.7l0,0c2.5,9.5,1.5,19.2,1.4,28.9c0,3.6,2.2,4.5,4.5,5.3
	s2.1-1.7,3-3.4C349,270.9,352.3,270.9,355.6,270.9z"/>
<path id="path466" class="st102" d="M353.5,285.8c-6.8-5.2-12.1-11.8-18.3-17.7c-1.2-1.1-2.9-2-2.8-4.1l18.6,18.3L353.5,285.8z"/>
<path id="path468" class="st24" d="M310.6,208.6c-0.5-0.7-1.6-1.1-0.8-2.2c3.2,0.8,6.6,0.2,9.8,1.5l-4.5,1.5
	C313.7,208.3,311.8,210.3,310.6,208.6z"/>
<path id="path470" class="st4" d="M306.8,214.6c-1.6-0.2-1.5-1.1-1.1-2.3c0.7-2,2.3-2.3,4.1-2.2c0.9-0.5,1.5-0.5,1.5,0.8
	L306.8,214.6z"/>
<path id="path472" class="st18" d="M336.1,265.6c1.7-4.4,0.3-9,0.8-13.5c1.6,4.6,0.6,9.3,0.6,13.9
	C337.4,267.2,336.5,266,336.1,265.6z"/>
<path id="path474" class="st18" d="M331.6,240.8c1.6,3.8,0.3,7.8,0.7,11.7c0.1,1.4,0,2.7,0,4.1c-1.7-3.8-0.4-7.8-0.7-11.7
	C331.5,243.6,331.6,242.2,331.6,240.8z"/>
<path id="path476" class="st103" d="M311.9,282.2l1-0.1l0,0c1,0.5,1.7,1.3,2.2,2.2c0.8,2.1,3.8,2.7,3.7,5.5l-6.5-6.4L311.9,282.2z"
	/>
<path id="path478" class="st4" d="M302.3,224.3c-1.3-1.2-0.8-2.8-0.6-4.2c0.1-1,0.6-2.4,2.1-1.1
	C303.7,220.9,303.2,222.7,302.3,224.3z"/>
<path id="path480" class="st10" d="M311.3,210.8c-0.3-0.5-0.9-0.8-1.5-0.8c-0.1-0.6,0.2-1.2,0.8-1.5c1.5,0.2,3.2-0.6,4.5,0.8
	L311.3,210.8z"/>
<path id="path482" class="st24" d="M324.8,207.8c0.5-1.8,1.5-2,4.5-0.7C327.9,208,326.4,207.9,324.8,207.8z"/>
<path id="path484" class="st104" d="M305.3,273.1c-1.4,0.1-2.8-0.3-3.2-1.7c-0.3-1.1,0.9-1.2,1.7-1.3
	C303.5,271.5,304.5,272.2,305.3,273.1z"/>
<path id="path486" class="st105" d="M306.8,219.9h-0.8c0.3-1.7,1.4-3.1,2.9-3.9C308.7,217.5,307.5,218.6,306.8,219.9z"/>
<path id="path488" class="st105" d="M311.9,212.8l-0.6,1.8l-2.4,1.4C309.4,214.5,310.5,213.4,311.9,212.8z"/>
<path id="path490" class="st106" d="M72.2,350.9c0.8-7,0-13.9,0.1-20.9c0.1-10.3,0.7-20.7,0.6-31c-0.1-8.4-0.8-16.6-1.3-25
	c-0.3-4.9,0.2-9.9,0.3-14.9c0.2-5.3-0.9-10.7,0.3-16c0.5-2.3-0.7-2.7-2.7-2.7c-7.2,0.1-14.4,0.1-21.7,0.1c-1.4,0-2.7-0.2-4.1-0.4
	c-0.2-7.8-0.4-15.6-0.7-23.5c-0.1-2.7,1-4.6,3.7-4.6c11-0.1,22.1-0.8,33.1,0.3c-2,1-4.1,0.2-6.3,0.5c3.8,0,7.3-0.1,10.9,0
	c1,0,2.3-0.6,2.8,0.9c-0.9,1.2-2.2,1.2-3.4,1.2c-2.1-0.1-4.2,0.5-6,1.6c-1.1,0.6-2.4,0.8-3.6,0.5c-1-0.1-2.3-0.4-2.2-1.6
	c0-1.7,1.5-1.2,2.5-1.1c0.1,0,0.2,0.1,0.3,0.2v-0.4c-8.4,0.6-16.8,0.9-25.2,0.7c-2.9-0.1-4.3,1.1-4.1,3.9c0.4,5.6,0.8,11.2,0.8,16.8
	c0,2.5,1.8,2.6,3.7,2.6c6,0,12,0,18,0c1.4,0,2.8,0,4.1,0.1c3.8,0.5,5.3,2.6,3.6,5.9c-1.8,3.6-1.8,7.2-1.8,10.9c0,6,0,12,0,18
	c0,3.5,0,7,1.5,10.3c0.5,1.5,0.7,3.2,0.4,4.8c-0.7,6.6-0.7,13.2,0,19.8c0.1,2.9,0,5.7-0.4,8.6c-0.7,8,1.4,15.9,0.1,23.9
	c-0.4,2.2,0.8,4.4,1.1,6.6c0.3,1.8,1.7,2.5,3,1.8c3.8-2,7.5-0.4,11.3,0c4.2,0.5,4.8,0,4.8-4.4c-0.2-12.3,0.5-24.7-0.6-37
	c-0.1-1.4,0-2.7,0.3-4.1c0.6-3.8,0.4-7.8-0.6-11.5c-0.7-2.5-0.8-5.2-0.3-7.8c1.9-11.6,1.6-23.3,0.6-35c-0.2-3.1-0.2-6.2,0.1-9.4
	c0-2,1.7-3.7,3.7-3.7c0.1,0,0.2,0,0.3,0c2.4-0.1,4.8-0.4,7.1,0.2c2.5,0.9,5.3,0.4,7.3-1.2c2.5-1.9,2.8,1.4,4.3,2.2
	c0.6,0.7,0.6,1.7,0,2.4c-5.8,0.6-11.7,0.3-17.5,0.2c-1.8,0-2.8,0.2-2.8,2.4c0.1,17,0,33.9,0.1,50.9c0.1,18.7,0.3,37.4,0.6,56
	c0,2-0.9,3-2.6,2.7C87.8,350.5,80,352.3,72.2,350.9z"/>
<path id="path492" class="st107" d="M117.8,239.7v-1.9c-1.2-1.4-1.1-3-1.1-4.6c0-4.7-0.2-9.5,0.2-14.2c0.2-2.6-0.8-3.6-3.5-4.1
	c-7-1.3-14,0.6-20.9,0.1c-1.8-0.1-3.8,0.3-5.3-1.1c-3.1-1.6-6.3-0.4-9.5-0.7c-1.6-0.1-3.2,0-4.8-0.9h7c12.1,0.5,24.2-0.6,36.2,0.5
	c2.6,0.2,3.4,1,3.3,3.5c-0.2,7.1-0.2,14.2-0.2,21.3C119.1,238.5,119.4,239.7,117.8,239.7z"/>
<path id="path494" class="st12" d="M117.1,210.8c-0.2-0.7-1.4-0.8-1.1-1.7c0.2-0.7,1-0.7,1.5-0.5c1.2,0.5,0.1,1.4,0.3,2.1H117.1z"/>
<path id="path496" class="st108" d="M263.4,309.8c0.4-0.4,1.3-1.2,1.2-1.2c-2.1-2.9,0.1-6.7-2-9.7c-1.2-1.7-0.9-1.6,1-4.1
	c1.2-1.7,0.4-4,0.4-6.1c-1.9,0.9-1,2.7-1.8,4l-3.3-4.4c-1.2,0.6-0.6,1.5-0.6,2.3c0.1,3.2,1.9,6.5-1,9.4c-0.5,0.5-0.2,2.2,0.1,3.2
	c2.1,6.5,2.9,12.8-1.8,18.6c-0.4,0.4-0.4,0.9,0,1.3c0,0,0,0,0,0c4.9,3.3,2,8.1,2.1,12.2c0,2.1-0.5,3.7,0.7,5.9s0.8,5.4,0.1,8
	c-0.5,1.8-2.7,0.4-4.1,0.6l2.6-0.8c-4.4-3.6,0.3-9.7-4.1-14.1c-0.7,4,1.1,7,0.7,10.2c-0.2,2.3-0.2,4.6-3.5,3.6
	c-1.6-0.5-0.9,1.5-2.3,1.8c-2.8,0.7-5.7,0.5-8.4-0.5c1.4-1.1,3.3,0.2,5-1.2c-2.3-1.3-5.3-1.6-6.6-0.3c-3.5,3.5-2.8-0.5-2.9-1.5
	c-0.2-6.7-0.6-13.6,0.1-20.2c0.4-2.7,0.4-5.5-0.1-8.3c-0.6-3-0.2-6.2-0.1-9.4c0.1-2-0.6-4.3,1.2-6c0.3-0.5,0.4-1.2,0.1-1.8
	c-2.2-2.9-1.1-6.3-1.2-9.5c0-1.7-1.7-4.9,2.9-3.9c1.1,0.2,2.6-2.2,2.1-4.7c-1.4,0.1-2.9,1.7-4.3,0.3c-1.2-1.2-0.7-2.8-0.7-4.3
	c0-21.5,0-43,0-64.5c0-0.4,0-0.7,0-1.1c0.2-1-0.5-2.7,1.1-2.8s1.1,1.6,1.2,2.6c0.1,3.8,0,7.5,0,11.2c-0.3,1.3,0.3,2.6,1.5,3.2
	c0-4.7,0.2-8.9-0.1-13c-0.2-3.4,0.8-4.8,4.3-4.4c5,0.6,10.1-0.3,15.1,0.7c3.5,0.7,4.1,2.2,2.9,5.4c-1,2.5-0.7,3.5,1.9,4.4
	c1.2,0.4,0.7,1.3,0.6,1.7c-1.2,5,2.7,9.6,1.1,14.5c4.4,2.5,0.4,7.6,3.2,10.6c0.4,0.5,0.4,1.2,0.2,1.8c-1.8,4.2,1,7.9,1.5,11.8
	c0.2,1.5,0.4,3.3,2.5,3.1c1.6-0.2,3.7-0.3,3.5-2.9c-0.1-1.3,1.3-2.5,0.4-3.9c-0.8,0.1-1,0.7-1.1,1.3c-0.1,0.9-0.1,2-1.5,1.6
	c-1-0.2-0.5-1.2-0.6-1.8c-1.1-6.5,1.9-12.4,2.3-18.7c0.1-1.1,0.8-1.6-1.1-1.8c-1.1-0.1-1.4-2.5-1.4-4c-0.4-6.5,0.6-12.9-0.6-19.4
	c-0.4-2.1,1.4-2,3.1-1.6c3.1,0.7,6.4,1.5,8.7-1.9c2.7-0.7,2.6,2.6,4.4,3.2c0.5,0.8,0.9,1.8,1,2.8c0.4,5.6,0.1,11.2,0.2,16.8
	c0,2.2,0.3,4.2,2.2,5.6c1.2,2.6,0.5,5.3,0.7,7.9c0.1,1.7-0.1,3.4,1,4.9c0.7,1.7,0.5,3.4,0.5,5.2c0,12.1-0.1,24.1,0.1,36.2
	c0,2.4-0.4,4.8,2.1,6.6c1.3,0.9,0.5,3.1,1.2,4.6c-1.6,2.3-0.9,4.9-0.8,7.4c0.1,7.2,0,14.5,0.1,21.7c0.1,3.8,0.5,7.7,0.7,11.5
	c0.2,2.8-0.4,4.6-3.9,3.9c-1,0-1.9,0.1-2.9,0.4c-6,0.7-12.1,0.1-18.2,0.3c-2,0.1-2-1.5-2.3-2.8c-1.4-5.8-1.4-11.8-2.3-17.7
	c-0.3-1.8-0.2-3.7-1.2-5.3C264.8,320,263.8,314.9,263.4,309.8z"/>
<path id="path498" class="st109" d="M266.2,324.9c2.8,2.6,1.6,6.1,2.2,9.2c0.9,4.2,1.1,8.5,1.7,12.8c0.3,2.4,1.5,3.5,4.2,3.4
	c5.3-0.2,10.7,0,16,0c0,0.2,0,0.3,0,0.5c-6.3,1-12.7,0-19.1,0.5c-1.4,0.1-1.9-0.5-2.1-1.9C268.2,341.2,267.2,333.1,266.2,324.9z"/>
<path id="path500" d="M260.5,311.1V306C261.8,307.7,262.2,309.1,260.5,311.1z"/>
<path id="path502" class="st110" d="M259.7,296.4l-0.1-2.8c1.4,2.1,1.7,3.5,1.5,5L259.7,296.4z"/>
<path id="path504" class="st111" d="M306.1,342.1c1.2,0.8,0.4,4.8,3.8,2.2c0.9-0.6,1,1.2,1.1,1.8c0.6,3.2,3,3.3,5.5,4.4
	c6.1,2.6,12.8-0.4,18.8,2.6c2.1,1,3.9-1.4,6-1.3c2.2,0,4.4-0.2,6.6-0.6c6.8-1.5,10.4-6.7,14.5-11.3c0.3,0.1,0.5,0.4,0.5,0.7
	c-0.9,3.1-3.7,4.7-5.2,7.3c-11.4,7.6-24.1,6.7-36.8,5.3c-1.6-0.2-3.2-0.4-4.8-0.6c-9.1-3.4-12.5-10.2-13.1-19.7s-0.5-18.9-0.8-28.4
	c-0.1-3.1,1-4.2,4.1-4.1c6.9,0.1,13.7-0.3,20.5,1c1.9,0.4,2.8,1,2.7,3.1c-0.1,6,0,12-0.1,17.9c-0.1,3.1,1.6,5.9,4.3,7.3
	c2,1.2,3.4,0.5,4.2-1.4c2.9-6.2,0.4-17.9-4.8-23l0,0c-2.1-3.9-5.7-6.4-8.6-9.6c-0.9-1-1.9-1.9-2.8-2.9c0.5-0.8,1.1-1,1.8-0.3
	c1,0.9,1.9,2,3,2.9c1.5,1.2,2.7,4.1,4.4,3.4c1.5-0.7,1-3.7,1.6-5.8c1.4,1.8,3.2,3.7,1.3,6c-2.3,2.7-0.5,4.6,1.2,5.5
	c4.2,2.1,4,6,4.9,9.5c0.6,2.4,0.1,4.9,0,7.4c0,1.4-0.4,3.2,2.2,2.6c2.2-0.4,1.4,1.5,1.5,2.5c0.1,1.6,0,3.1,2.2,3
	c1-0.2,2,0.6,2.2,1.6c0,0,0,0,0,0.1c0.1,0.7-0.4,1.1-0.9,1.5c-1,0.6-2.1,1-3.1,0.1c-0.4-0.4-0.8-0.9-1.2-1.5
	c-1.4-1.7-2.5-2.9-4.6-0.6c-1.8,2-5.8,0.9-7.8-1.7c-1.6-2.1-2.5-4.6-2.5-7.3c0.1-5.2-0.1-10.4,0.1-15.5c0.1-2.7-1.3-3.2-3.6-3.5
	c-5.6-0.5-11.3,0.3-16.9,0.2c-1,0-2.9-1.1-3.3,0.4s-1.2,3.4,0.6,4.7c0.6,0.3,0.8,1,0.5,1.6c-2.9,7.4-1.1,14.9-0.9,22.4
	c0.1,1.9,0.2,3.7,0.2,5.6C306.4,338.7,306.4,340.3,306.1,342.1z"/>
<path id="path506" class="st104" d="M333.2,305.2c0.1,0.5,0,1.1,0.3,1.4c4.9,5.7,4.4,12.5,4.1,19.2c-0.1,3.3-1.6,3.8-4.3,2.1
	c-2.2-1.4-2.7-3.6-3-5.8c-0.8-5.6,0.5-11.1,0.7-16.8C330.9,302.8,332.4,305.8,333.2,305.2L333.2,305.2z"/>
<path id="path508" class="st92" d="M320.3,299.3c-1.2-2.5-3-4.5-5.3-6c-2.2-1.6-1.5-2.5,0.8-3c0.6-0.3,1,0.1,1.3,0.5
	c0.7,1.8,1.6,3.4,3.8,3.7c0.7,0.4,1.3,1,1.8,1.7c0.2,1.2-0.6,2.1-0.9,3.1L320.3,299.3z"/>
<path id="path510" class="st23" d="M321.1,294.8c-2.9,0.4-4.1-1.1-4.5-3.8c1.4-0.5,1.6,0.9,2.3,1.5l2.2,1.5c0.2,0.2,0.3,0.3,0.2,0.5
	S321.1,294.8,321.1,294.8z"/>
<path id="path512" class="st23" d="M321.8,299.3c-1-1.3,0.3-2,0.8-3c0.2-0.3,0.5-0.3,0.7,0l1.5,2.2c-0.1,0.4-0.4,0.7-0.8,0.8
	L321.8,299.3z"/>
<path id="path514" class="st104" d="M318.8,292.6l-2.3-1.5l-0.8-0.8c0-0.5,0-1,0-1.5C317.2,289.8,318.6,290.7,318.8,292.6z"/>
<path id="path516" class="st104" d="M323.3,296.3h-0.7c-0.7-0.3-1.2-0.8-1.5-1.5c0-0.2,0-0.5,0-0.7
	C322.1,294.6,322.9,295.4,323.3,296.3z"/>
<path id="path518" class="st92" d="M324.1,299.3l0.8-0.8c0.5,0.3,1.4,0.6,0.8,1.3C325.2,300.3,324.5,299.9,324.1,299.3z"/>
<path id="path520" class="st112" d="M362.8,340.5l-0.5-0.7c1.9-5.1,2.6-10.6,2.2-16c-0.2-6.3,0.7-12.6-0.6-18.9
	c-0.5-2.4-1.7-4.3-2.7-6.4c-0.6-1.4-2.2-2.5-1.4-4.3l4.6,7.5c0.2,2.2,1.3,4.3,0.9,6.6c0.5,2.3,0.5,4.7,0,7c-0.1,6.4,0,12.8-0.2,19.2
	C365.1,336.7,364.3,338.8,362.8,340.5z"/>
<path id="path522" class="st97" d="M365.4,315.2c0-2.3,0-4.7,0-7C366.2,310.5,366.2,313,365.4,315.2z"/>
<path id="path524" class="st25" d="M258.1,96.8c3.2-1.5,4.2,0.7,5.2,3C261.8,98.3,258.4,100.3,258.1,96.8z"/>
<path id="path526" d="M234.2,99.6c-1.8,1-3.5,1.9-6.1,1C230.2,98.6,232.2,99.1,234.2,99.6z"/>
<path id="path528" class="st0" d="M249.3,104.9l-8,0.1C243.9,104.3,246.7,104.3,249.3,104.9z"/>
<path id="path530" d="M256.5,101.3c-0.4,0.3-0.6,0.6-0.9,0.7s-0.5-0.2-0.8-0.4c0.2-0.2,0.4-0.6,0.7-0.7S256.1,101.1,256.5,101.3z"/>
<path id="path532" class="st56" d="M280.6,42.1c2.4-1.2,5.1-1.2,7.5,0H280.6z"/>
<path id="path534" class="st113" d="M200,278.7c2,9,1.5,17.8,2.5,26.4c0.4,3,0.5,6,0.9,8.9c0.3,2.1-0.4,3-2.6,2.8
	c-1.2-0.1-2.5-0.2-3.7-0.1c-1.2,0-1.8-0.4-1.6-1.8c1.5-11.2,1.7-22.6,3.8-33.7C199.4,280.4,199.6,279.8,200,278.7z"/>
<path id="path536" class="st114" d="M209.7,340.3c0.2,0.8-0.5,0.4-0.9,0.5c-2.6,0.3-1.7-2.5-3-3.4c-0.4-0.3,0.3-1.3,1-1.1
	C208.6,336.9,208.3,339.1,209.7,340.3z"/>
<path id="path538" class="st71" d="M187.4,138.8l-0.2,2.5c0,4.7,1.1,9.3,0.8,14c-0.1,2.5-0.9,3.6-3.5,3.4c-2.3-0.1-4.7,0-7,0
	c-2.7-1.2-5.7-1-8.5-1c-5.1-0.1-10.2,0.1-15.2,0.6l-0.6,1.4c-0.6,0.8-0.2,2-1.1,2.6c-0.6,0.1-1.2-0.1-2,0.1c0.9,0.8,2.3,0.3,2.6,1.5
	c0.2,3.3-0.6,6.8,1.3,9.9c1.3,1.7,3.2,1.1,4.9,1.3c5.1,0.7,10.2,0.9,15.3,0.5c2.8-0.4,5.5-0.9,8.3,0c0.3,0.9-1,2.9,1.6,2.2
	c1.1-0.3,2.2-0.1,3.1,0.6c0.6,0.8,0.8,1.7,0.5,2.6c-0.5,1.8,0.2,3.4,0.6,5.1c0.5,1.7,0.6,3.5,0.3,5.2c-0.9,3.4-1.1,6.9-0.6,10.3
	c0.4,3.5-0.9,4.7-4.2,4.5c-5.6-0.2-11.2-0.1-16.7,0.4c-3.1,0.1-6.3,0.1-9.4,0.2h-13.6c-3.6-0.1-7.1-0.7-10.6,0.5
	c-2.1,0.1-4.2,0-6.3,0.1c-1.9-0.3-4.1,0.9-5.7-1.1c-1.2-4.3-0.5-8.4,1.1-12.5c0.2-0.6,0.6-1.1,1.1-1.5c3.2-2.1,3.2-2.1,4.4-5.3
	c-0.6-0.1-0.5,0.4-0.6,0.7s-0.3,0.7-0.5,1c-1.2,2-2.5,1.2-2.8-0.4c-0.5-2.7-2.2-5-2.5-7.8c-0.2-6-0.3-12.1-0.7-18.1
	c-0.2-2.1,0.2-4.2-0.3-6.3c-0.2-1-0.2-2-0.2-3c0-1.2,0-2.4,0-3.6c0.1-0.4,0.3-0.7,0.6-0.9c1.8-0.6,2.9-2.4,2.5-4.3
	c-0.1-1.2-0.1-2.4,0.1-3.6c0-0.2,1.3-1.4-0.4-1c-0.9-0.5-1.6-1.4-1.6-2.4c-1.4-10.7,1-21.4,0.3-32c0.1-1.6-0.1-3.2-0.3-4.8
	c-0.1-1.5-0.1-3,0-4.5c0-0.4,0.1-0.8,0.1-1.1c1-2.3,3.3-2.7,6.2-3.3c-2.2-1-4.5,1.4-5.5-1.5c-0.6-1.9-0.9-3.8-0.9-5.8
	c0.1-2.2-0.2-4.5,0.2-6.7c1.4-1.6,3-0.4,4.5-0.2c5.6,0.7,11.3,0.7,16.9-0.1l0.7-0.2c12.2,0,24.3,1.4,36.5,1c1.2,0,2.5,0.3,3.7,0.4
	c1.3-0.1,2.5,0.9,2.6,2.2c0,0.4,0,0.8-0.2,1.2c-0.5,1.9-0.4,4,0.3,5.8c0.4,1.3,0.5,2.7,0.2,4.1c-1,4.5-1.3,9.1-1,13.7
	c0,0.8-0.2,1.5-0.8,2c-9.7,0.8-19.4,0-29.1,0.2c-3.8,0.1-4.3,0.5-3.9,4.3c0.3,2.7,0.8,5.4-0.4,8c-1.1,3,0.3,5.9,0.6,8.8
	c0.2,2,2.1,1.3,3.4,1.3c9.9-0.3,19.9,0.4,29.8,0.5c2.5,0.6,0.6,3.2,2,4.4l-0.1-0.1C188.4,136.3,187.1,137.5,187.4,138.8z"/>
<path id="path540" class="st115" d="M185.3,107.3c0-3.5,0-7,0-10.4c0-1.5-0.1-2.9,1-4.2c0.9-1.3,1-2.9,0.2-4.3
	c-1.3-2.1-1.6-4.7-0.6-6.9c0.8-2.1-1.1-2.9-2.9-2.6c-4.2,0.8-8.3,0-12.5-0.1c-8.1-0.2-16.1-0.5-24.2-0.7c-0.9,0-1.8-0.1-2.3-0.9
	c4.9-0.8,9.9-1,14.8-0.4c8.6,0.8,17.2,0.5,25.7,1c2.9,0.2,2.9,1.3,3.1,3.6c0.6,8.2-1.3,16.2-0.4,24.4c0.1,1.2,0.1,2.7-1.9,2.2
	c-0.3-0.1-0.4-0.3-0.3-0.4C185.1,107.4,185.2,107.3,185.3,107.3z"/>
<path id="path542" class="st116" d="M122.3,181.6c2,2.1,2.1,5.1,2.9,7.9c1.8-1.5,1.2-4,3.1-5.3c1.2,2.1,1.2,3.9-0.5,5.8
	c-1.3,1.4-2.9,2.8-2.6,5.2c-1.2-0.6-0.3-1.7-1.1-2.5c-2.6,4-2.4,8.5-2.6,12.9c-0.2,0.3-0.3,0.8-0.8,0.8c-1.4-2-0.5-4.3-0.5-6.4
	c0-4.9,0.2-9.9,0.4-14.8C121.9,184.4,121,182.4,122.3,181.6z"/>
<path id="path544" class="st117" d="M167.3,206.3c1.9-0.7,3.9-0.9,5.9-0.7c3.8,0.6,7.4-1.2,11.4-0.2s2.9-3.4,2.7-4.9
	c-0.4-3.2-0.5-6,0.9-9c0.7-1.6-0.1-3.3-0.6-5s-2.5-3.8,0.1-5.6c0.2,0.3,0.4,0.6,0.4,1c0,0.5,0,1,0.1,1.4c-0.1-0.5,0.1-1,0.4-1.3
	c1,3.9,0.8,7.9,0.4,11.9c-0.4,2.8-0.3,5.7,0.1,8.5c0.7,3.9-0.1,4.5-4,4.5l-17.5,0.1c-0.3-0.1-0.3-0.3-0.2-0.4
	C167.2,206.4,167.2,206.3,167.3,206.3z"/>
<path id="path546" class="st118" d="M120.8,149.3l-0.1,3.8c-0.2,0.4-0.4,0.3-0.6,0c-0.5-2.7-0.3-5.5,0.6-8.1
	c0.4-1.2,0.6-2.4,0.6-3.7c-1.7-14.6,1.4-29.2-0.2-43.7c-0.2-2,0-4,0.8-5.9c1.8,0.7,1,1.8,0.5,2.9c0,0.2,0,0.5,0,0.7
	c-0.6,1.4-0.6,3.1,0,4.5c-0.3,8.3,0.5,16.6-0.7,24.9c-0.6,4.4,0.1,8.9,0.7,13.3C124.1,142.1,123.4,145.9,120.8,149.3z"/>
<path id="path548" class="st119" d="M186.1,131.3c-10.3,0.3-20.6-1.3-31-0.7c-1.3,0.1-2.9,0-3-1.5c-0.3-3-2-5.9-0.5-9
	c0.2-0.2,0.5-0.3,0.8-0.1c0.1,0.1,0.1,0.1,0.2,0.2c0,0.2-0.1,0.5-0.1,0.7c-0.4,8.5-0.2,8.7,8.1,8.7c8.9-0.1,17.9,0.2,26.8,1
	C187,131,186.5,131,186.1,131.3z"/>
<path id="path550" class="st120" d="M122.3,94.6c-0.1-1,0.3-2.1-0.5-2.9c-0.9-4-1.2-8.1-0.9-12.1c0-0.8-0.4-1.8,0.8-2.1
	c1.1,2.5,0.4,5.1,0.5,7.7c-0.1,2.2,0.6,4.3,1.9,6l1.9-1.8c0.6-0.5,1.1-0.5,1.5,0.2c0.5,0.8,0.9,1.7,1.1,2.7c0.1,0.8-0.9,1-1.4,0.8
	C125.2,92.1,123.9,93.6,122.3,94.6z"/>
<path id="path552" class="st121" d="M152.5,120.2l-0.9-0.1c1.1-2.4,0.9-4.9,0.4-7.3c-1-4.8-0.5-5.4,4.5-5.4h28.9c0,0.2,0,0.5,0,0.7
	c-9.6,0.9-19.3-0.2-28.9-0.1c-2.7,0-3.7,0.5-3.5,3.5S154,117.3,152.5,120.2z"/>
<path id="path554" class="st122" d="M177,158.3c0.7,0,1.5,0.1,2.2,0.1c8.9,0.1,9.9-1.2,8.1-10.1c-0.6-2.3-0.6-4.7-0.1-6.9
	c1.1,5.1,1.6,10.3,1.2,15.4c0,1.1,0,2.4-1.6,2.3c-3.8-0.2-7.6,0.6-11.4-0.5C175.8,157.9,176.4,157.9,177,158.3z"/>
<path id="path556" class="st123" d="M122.3,181.6c-0.1,1.4-0.1,2.9-1.8,3.6c1-5.8,0-11.7,0.1-17.5c0-1.2,0.1-2.5,0.1-3.7
	c-0.2-0.8-0.8-1.8,0.8-1.9C121.1,168.6,122.4,175.1,122.3,181.6z"/>
<path id="path558" class="st118" d="M177,158.3l-1.6,0.2l-21.6-0.2l-0.1-0.4C161.5,157.7,169.2,155.8,177,158.3z"/>
<path id="path560" class="st124" d="M188.4,182l-0.6,1.2l-0.3-2.3l-0.7-2.2c-0.2-0.4-0.5-0.8-0.9-1c-0.9-0.3-1.9-0.5-2.8-0.6
	c-0.3-0.1-0.6-0.3-0.8-0.6c-2.6-1.8-5.6,0.1-8.3-0.7c4.3-2,8.9-0.9,13.1,0C189.5,176.2,188.2,179.8,188.4,182z"/>
<path id="path562" class="st125" d="M143.3,77.3c-2.3,1.6-4.8,0.6-7.2,0.7c-3.8,0.2-7.6,0-11.4-0.6l1.7-0.2L143.3,77.3z"/>
<path id="path564" class="st126" d="M153.9,173.8c-1.6-0.5-1.5-2-1.6-3.2c-0.1-2.4-0.1-4.7-0.1-7.1c-0.4-0.4-0.5-1-0.1-1.4
	c0,0,0.1-0.1,0.1-0.1c0.6-0.7-1.1-2.2,0.9-2.4C153.5,164.4,152.9,169.2,153.9,173.8z"/>
<path id="path566" class="st127" d="M167.3,206.3c0,0.2,0,0.4,0,0.6c-3.2,0.5-6.5,1-9.7,0C160.8,205.7,164.1,206.7,167.3,206.3z"/>
<path id="path568" class="st128" d="M133.6,207.1c3.5-1.3,7-0.9,10.5-0.2l-8.9,0.3C134.7,207.5,134,207.5,133.6,207.1z"/>
<path id="path570" class="st129" d="M121.6,162.1c-0.6,0.4-0.9,1.2-0.8,1.9c-0.6-1.6-0.7-3.3-0.4-5c0.3-0.9-0.3-2,0.5-2.9
	C122.3,157.9,121.3,160.1,121.6,162.1z"/>
<path id="path572" class="st130" d="M133.6,207.1l1.6,0.1c-2.6,1.8-5.6,0.1-8.3,0.7c-0.3-0.2-0.4-0.3-0.3-0.5
	c0.1-0.2,0.2-0.3,0.2-0.3L133.6,207.1z"/>
<path id="path574" class="st131" d="M126.8,207.1c0,0.2,0,0.5,0,0.7c-2.2,0-4.6,1.2-6.1-1.4l0.8-0.8
	C122.8,207.9,125,206.8,126.8,207.1z"/>
<path id="path576" class="st123" d="M120.8,156.1c-0.2,1,0.2,2-0.5,2.9l-0.2-5.9h0.6C120.8,154.1,120.8,155.1,120.8,156.1z"/>
<path id="path578" class="st132" d="M187.4,138.8c-1.3-1.4,0.3-2.5,0.3-3.8C188.5,136.2,188.4,137.7,187.4,138.8z"/>
<path id="path580" class="st132" d="M186.1,131.3l1.2-0.8c0.5,1.4,0.7,3,0.4,4.5C186.1,134.3,187.5,132.2,186.1,131.3z"/>
<path id="path582" class="st133" d="M125.3,245.3c0.2,0,0.5,0,0.7,0l2.3,1.5c-1,0.1-1.9,0.2-2.8,0.3c-1.3,0.3-3.2,1.2-3.4-0.4
	C121.9,244.9,124.1,245.5,125.3,245.3z"/>
<path id="path584" class="st134" d="M287.3,214.6c-2.6,0.7-1.7-2.9-3.8-3h-8.2c-1.2-0.7-1.2-1.5,0-2.2c4.3-0.1,8.5-0.3,12.8,0.8
	c1.1,0.4,1.6,1.4,2.2,2.2c0.4,1.6,2,2.7,3.7,2.3c0,0,0,0,0.1,0c3-0.4,3.9,1.2,3.8,4c-0.4,9.7-0.5,19.5-0.4,29.1
	c0.1,11.4,0,22.9,0.4,34.4c-0.4,0.2-0.8,0-1-0.3c0,0,0,0,0-0.1c0.4-5.9-1-11.6-1.2-17.5c0.7-3.3-1.9-6.4-0.7-8.6
	c0.8,8.6-0.2,18.3,0,27.2c0.6-3-0.9-6.9,0.8-10.5c1.8,0.3,1,1.7,1,2.7c0.2,2.3-0.3,4.7,0.3,7c1.2,1.7-0.1,3.8,0.9,5.5
	c0,4.8,0,9.7,0,14.5c0,1.2,0.4,2.5-0.7,3.5h-1.4c1.2-3.4-3-4.7-3.1-7.6c-0.1-3.4,0-6.7,0-10.1c0-11.6,0-23.2,0-34.8
	c-1.1-1.3-0.7-2.8-0.7-4.3c0-8.9,0-17.9,0-26.8c0,5,0,9.9,0,14.9c0,1.2,0.3,2.5-0.7,3.5c-2.3-0.2-3.1-1.5-3-3.8c0.1-6.5,0-13,0-19.5
	C289.1,215.6,287.9,215.2,287.3,214.6z"/>
<path id="path586" class="st108" d="M290.3,212.3c-1-0.5-2.2-0.8-2.2-2.2C291.9,207.7,290,211.2,290.3,212.3z"/>
<path id="path588" class="st108" d="M275.3,209.3c-0.5,0.7-0.5,1.6,0,2.2c-0.9-0.2-2.6,0.6-2.6-1
	C272.7,209.3,274.2,209.3,275.3,209.3z"/>
<path id="path590" class="st108" d="M297.8,287.3c-1.4-1.6-0.4-3.5-0.7-5.2h0.7C297.8,283.8,297.8,285.6,297.8,287.3z"/>
<path id="path592" class="st92" d="M308.2,286.8c0,0.5-0.1,1.1-0.7,1c-0.4-0.1-0.8-0.4-1-0.8c-0.2-0.5,0.1-0.9,0.7-0.9
	C307.7,286,308.1,286.3,308.2,286.8z"/>
<path id="path594" class="st92" d="M307.6,282.9c-0.1,0.5-0.1,1.1-0.8,1s-0.7-0.6-0.5-1.1c0.1-0.3,0.4-0.8,0.6-0.8
	C307.7,281.8,307.4,282.5,307.6,282.9z"/>
<path id="path596" class="st97" d="M130.6,70.6c-2,0.1-4-1.6-6,0c-2.2,0.5-4.6,0.3-6.7-0.7c-3.9-1.8-6.2,0.1-6.1,4.2
	c0.2,6.3-0.2,12.7-1.2,19c-1.1,6.7,0.1,13.4,0.8,20.1c0.7,6.4-0.2,12.6-0.7,18.9c-0.3,4.6-1.5,9.7-0.6,13.6
	c4,18.1,0.8,36.2,1.8,54.3c0.4,7.2-0.7,7.6-7.8,8c-7.8,0.4-15.2-2.4-23-1.7c-3.2,0.3-2.5-2.8-1.9-4.1c2.1-4.6,1.2-9.4,1.3-14
	c0.1-14.9,1-29.8-0.2-44.6c-1.8-22.9-1-45.8-1.2-68.8c0-2.6-1-3.3-3.5-3.6c-3.9-0.4-7.9-0.3-11.5-1.2c-2.7-0.6-4.6-1.3-6.7,0.5
	c-1.2,0.7-2.6,0.8-3.9,0.3c-2.6-0.9-5.1-1.3-7.9,0.1s-5.5-0.8-5.5-3.9c0-9.3,0-18.6,0-27.8c0-2,0.2-3.8,2.3-4.6
	c4.7,1.4,9.5,0.8,14.2,0c1.5,0.8,3.1,0.7,4.8,0.7c17.7,0,35.5,0.4,53.2-0.2c9.8-0.3,19.7-0.4,29.5-0.6c10.6-0.1,21.2,1.2,31.8,0.8
	c1.4,0.9,3.1-0.2,4.5,0.7l0.8,0.8c0.6,3.7,0.6,7.5,0,11.2v8.2c0.6,4.2,0.6,8.5,0,12.8l0,0c-1.9,1.5-4.2,0.9-6.3,0.8
	c-0.4-0.1-0.9-0.2-1.3-0.3c-13.2-0.4-26.5-0.3-39.7,0C132.6,70.2,131.5,70,130.6,70.6z"/>
<path id="path598" class="st95" d="M180.8,69.8c-0.7,1.6-2.1,1.5-3.5,1.5h-43.3c-1,0-2,0.2-2.8-0.7c1.2-1.1,2.8-1.6,4.5-1.5
	c12.5,0.1,24.9-0.1,37.4,0.1C175.7,69.9,178.3,69.1,180.8,69.8z"/>
<path id="path600" class="st135" d="M174.1,69.8c-12.2,0-24.4,0-36.5,0c-2.1-0.1-4.2,0.2-6.2,0.8h-0.7l1.5-1.5
	c1.9-0.8,3.9-0.3,5.9-0.3c10.8-0.1,21.6,0,32.4,0c1.2,0,2.5-0.3,3.7,0.3l0,0c0.2,0.2,0.3,0.3,0.2,0.5S174.2,69.9,174.1,69.8z"/>
<path id="path602" class="st136" d="M56.3,34.6c-4,2.2-8.3,1.4-12.6,1.3c-0.8,0-1.3-0.7-1.6-1.3L56.3,34.6z"/>
<path id="path604" class="st95" d="M180.8,69.1c0-4.3,0-8.5,0-12.8C182,60.5,182,64.9,180.8,69.1z"/>
<path id="path606" class="st95" d="M180.8,48.1c0-3.7,0-7.5,0-11.2C182,40.5,182,44.4,180.8,48.1z"/>
<path id="path608" class="st137" d="M174.1,69.8v-0.8h6.8c0,0.2,0,0.5,0,0.7L174.1,69.8z"/>
<path id="path610" class="st95" d="M180.1,36.1c-1.5-0.2-3.2,0.6-4.5-0.7C177.1,35.6,178.7,34.7,180.1,36.1z"/>
<path id="path612" d="M153.4,74c1.3-0.5,2.2-0.6,3,0.7C155.3,75.3,154.4,75.2,153.4,74z"/>
<path id="path614" class="st138" d="M338.3,236.3l-1.3-5.5c3.9-0.3,2.9,3.4,4.4,5c0.5,0.5-0.4,2,1.1,1.9c1.2-0.1,1.1-1.2,1.4-2
	c0.4-1.4,1.1-2.8,2.1-3.9c0.4-0.6,1.3-0.8,1.9-0.4c0,0,0.1,0.1,0.1,0.1c0.6,0.3,0.9,1,0.6,1.6c-0.1,0.1-0.1,0.2-0.2,0.3
	c-1.4,1.6-1.6,3.5-1.8,5.6c-0.3,2.9-3.3,0.4-4.5,2c-0.6,0.8-1.1-0.8-1.6-1.5C339.5,238.5,340.5,236.5,338.3,236.3L338.3,236.3z"/>
<path id="path616" class="st139" d="M325.6,269.3c0-0.9-0.2-1.9,0.7-2.4c1.1-0.6,1.5,0.5,2.1,1.1c1.5,1.4,2.8,2.8,4.2,4.2
	c0.5,0.5,1.3,1.1,0.8,1.9s-1.3,0.5-2.1,0.4C328,274.2,325.6,272,325.6,269.3z"/>
<path id="path618" class="st140" d="M345.2,285.2c0.1,1.8-1.1,1.5-1.7,1.2c-2.5-1.3-4.5-3.3-5.8-5.8c-0.4-0.8-0.5-2.1,1.2-1.9
	S345.3,283.9,345.2,285.2z"/>
<path id="path620" class="st141" d="M351.9,291.9c1.3,0.2,1.5,0.9,1.3,1.7c-0.2,1.5-1.3,2.7-2.8,3.1c-0.5,0.2-0.8-0.5-0.8-1
	C349.8,294,351.1,293.1,351.9,291.9z"/>
<path id="path622" class="st142" d="M306.1,342.1c-1.3-1.2-0.4-3.2-1.5-4.5c2-0.3,2.9,1,3.5,2.6
	C308.8,342.3,307.7,342.5,306.1,342.1z"/>
<path id="path624" class="st99" d="M315.1,284.3c-1-0.5-1.8-1.3-2.2-2.2c0.2,0,0.5-0.1,0.7-0.2c1-0.4,1.1-3.2,2.9-1.5
	c1.4,1.3-1.1,1.5-1.2,2.5C315.2,283.3,315.1,283.8,315.1,284.3z"/>
<path id="path626" class="st143" d="M325.6,305.8c0.9-0.1,1.3,0.4,1.4,1.2c0.1,0.5-0.3,1.1-0.8,1.1c-0.1,0-0.1,0-0.2,0
	c-0.8,0.1-1.4-0.4-1.5-1.2c0,0,0,0,0,0C324.3,306.2,325,306.1,325.6,305.8z"/>
<path id="path628" class="st98" d="M361.3,238.5c0.8-0.3,1,0.1,0.9,0.4c-0.1,0.5-0.3,0.9-0.6,1.2c-0.5,0.4-0.7-0.1-0.6-0.5
	C361,239.3,361.2,238.9,361.3,238.5z"/>
<path id="path630" class="st98" d="M362.7,245.8c0.5,1.1,0.5,1.9,0,2.7C362.1,247.7,362.2,246.9,362.7,245.8z"/>
<path id="path632" class="st108" d="M87.1,213.8c5.7-0.2,11.4,0.4,17-0.7c3.9-0.8,7.8,0.9,11.8,0.7c2.7-0.1,2.4,2.6,2.2,3.9
	c-0.8,6.7-0.1,13.4-0.4,20.1c-2.2,0.5-2-1.6-2.8-2.7c-2.5,2.1-4.3,4.4-8.3,2.4c-2.4-1.2-5.8-0.4-8.8-0.3c-1.8,0.1-1.9,1.7-1.8,3.1
	c0.2,3.8,0.2,7.6,0.5,11.5c0.7,7.8-0.1,15.7,0.2,23.6c0.2,5.1-2.7,9.9-1.3,14.9c1.1,3.8,1.9,7.6,1.2,11.4
	c-1.5,7.9,0.4,15.8-0.1,23.8c-0.4,7.2-0.3,14.4,0.3,21.6c0.2,2.7-0.9,3.7-3.4,3.3c-1.8-0.2-3.9-0.1-5.5-0.8
	c-3.6-1.6-6.7,1.1-10.1,0.9c-1.9-0.1-3-0.2-2.4-2.8c0.6-2.4-1.8-4.6-1.2-7.2c1.7-7.2-0.9-14.5,0-21.7c1-7.8-0.1-15.6,0-23.4
	c0.2-14.4-2.6-28.8-1.5-43.3c0.2-2.7,0.1-5.3,1.8-7.8c2-3.1,0.9-4.8-2.7-4.9c-7.9-0.1-15.7-0.1-23.6,0c-2.5,0-3.3-0.8-3.2-3.2
	c0.2-6-0.1-11.9-0.7-17.9c-0.3-3.3,0.7-4.8,4.7-4.6c6.1,0.4,12.2,0.3,18.2-0.3c2.7-0.3,5.6,0.6,8.7,0.5c-1,1.4-2.6,0.1-3.6,1.6
	c2.1,0.9,3.8,1.3,5.8-0.5C80.8,212.6,84.1,214.4,87.1,213.8z"/>
<path id="path634" class="st91" d="M291.1,240.1v-23.5h1.5c0,12.1,0,24.1,0,36.2c-1.8-0.2-1.5-1.6-1.5-2.8
	C291.1,246.7,291.1,243.4,291.1,240.1z"/>
<path id="path636" class="st91" d="M287.3,214.6c0.9,0.2,2.4-0.6,2.6,1c0.1,0.9-1,1.2-1.9,1.3L287.3,214.6z"/>
<path id="path638" class="st144" d="M123.8,139.6c0-0.1,0-0.2,0.1-0.4c0.1-0.1,0.1-0.2,0.2-0.3c1.8,2.9,0.3,9.1-2.5,10.4
	C122.5,146.1,122,142.6,123.8,139.6z"/>
<path id="path640" class="st129" d="M123.8,139.6c-1.4,3.1-0.1,6.8-2.2,9.8h-0.7c0.7-3.7,2-7.4,1.5-11.2L123.8,139.6z"/>
<path id="path642" class="st145" d="M182.4,176.3c0.2,0,0.5,0,0.7,0c1.1,1.1,2.5,0.4,3.7,0.8c0.1,0.5,0.9,1,0.1,1.5
	c-1.2,0-2.4,0.1-3.6,0.3c-1.1,0.3-2.2,0.2-2.6-0.6C180.3,177.3,181.6,176.8,182.4,176.3z"/>
<path id="path644" class="st146" d="M152.3,162.1c0,0.5,0,1,0,1.5c-0.7,0.1-1.5,0.2-2.2,0.4c-1.7,0.4-1.5-0.8-1.5-1.8
	c0-1.2,0.6-1.6,1.7-1.1L152.3,162.1z"/>
<path id="path646" class="st115" d="M182.8,82.6c-0.4-0.2-0.8-0.3-0.9-0.6c-0.1-0.6,0.3-0.8,0.8-0.8c0.3,0.1,0.6,0.3,0.6,0.6
	C183.5,82,183.1,82.3,182.8,82.6z"/>
<path id="path648" class="st147" d="M122.3,99.8c-1.1-1.3-1.1-3.2,0-4.5C122.3,96.8,122.3,98.3,122.3,99.8z"/>
<path id="path650" class="st71" d="M122.6,186.9c0.6,1,0.6,2.2,0.2,3.3C120.8,189.1,122.6,187.9,122.6,186.9z"/>
<path id="path652" class="st71" d="M186.8,177.1c-1.5,0.8-2.8,1.2-3.7-0.8C184.3,176.5,185.8,175.8,186.8,177.1z"/>
<path id="path654" class="st148" d="M295.6,272.3v15.2h-0.9v-34.7c1.1,3,0.5,6.1,2.3,8.9c0.4,0.8,0.1,1.8-0.7,2.3
	C295.2,266.8,297.2,269.7,295.6,272.3z"/>
<path id="path656" class="st108" d="M295.6,272.3c0.4-2.7-0.9-5.6,0.8-8.2c0.9,6,0.7,12,0.8,18c-1.5-1.7-0.5-3.7-0.8-5.6
	C296.1,275.1,296.9,273.5,295.6,272.3z"/>
<path id="path658" class="st137" d="M155.8,64.2c7,0,14,0,21,0c1.2,0,3.2-0.4,3.1,1.7c-0.1,1.6-1.9,1.7-3.3,1.7c-13.7,0-27.3,0-41,0
	c-1.3,0-3.4,0.8-3.3-1.7c0.1-2.5,2.1-1.6,3.4-1.6c6.8,0,13.5,0,20.2,0L155.8,64.2z"/>
<path id="path660" class="st149" d="M174.1,69.1h-42c0.7-0.9,1.8-0.8,2.7-0.8h36.5C172.3,68.3,173.3,68.1,174.1,69.1z"/>
</svg>
